<svg width="100" height="100" viewBox="0 0 100 100" fill="none" xmlns="http://www.w3.org/2000/svg">
<g clip-path="url(#clip0_834_482)">
<path d="M50 25C36.2 25 25 36.2 25 50C25 63.8 36.2 75 50 75C63.8 75 75 63.8 75 50C75 36.2 63.8 25 50 25ZM50 0C22.4 0 0 22.4 0 50C0 77.6 22.4 100 50 100C77.6 100 100 77.6 100 50C100 22.4 77.6 0 50 0ZM50 90C27.9 90 10 72.1 10 50C10 27.9 27.9 10 50 10C72.1 10 90 27.9 90 50C90 72.1 72.1 90 50 90Z" fill="#5FBE7B"/>
</g>
<defs>
<clipPath id="clip0_834_482">
<rect width="100" height="100" fill="white"/>
</clipPath>
</defs>
</svg>
