<svg width="50" height="50" viewBox="0 0 50 50" fill="none" xmlns="http://www.w3.org/2000/svg">
<path d="M40.9453 12.1094V27.4297H14.6875H10.8984C10.4446 27.4297 9.97686 27.2596 9.64096 26.9602C9.33547 26.6879 9.09375 26.2727 9.09375 25.625V11.7578C9.09375 10.906 9.37763 10.1618 9.84372 9.64994C10.2865 9.16368 10.9871 8.78125 12.0703 8.78125H37.6562C38.3192 8.78125 39.1632 9.11556 39.8612 9.78164C40.5453 10.4345 40.9453 11.2683 40.9453 12.1094Z" fill="white" stroke="#203354" stroke-width="3.5"/>
<path d="M40.9842 12.1094V36.875C40.9842 37.4307 40.2207 38.6797 38.0076 38.6797H18.281C17.6488 38.6797 17.2194 38.4712 16.9551 38.2109C16.6949 37.9548 16.4763 37.5328 16.4763 36.875V29.1797V11.1328C16.4763 10.0303 15.8323 9.25135 15.2279 8.78125H37.6951C38.3581 8.78125 39.202 9.11556 39.9 9.78164C40.5841 10.4345 40.9842 11.2683 40.9842 12.1094Z" fill="white" stroke="#203354" stroke-width="3.5"/>
<path d="M35.1406 42.2318V33.2031H31.5859H28.0312V42.2318C28.0312 42.6361 28.3569 43.2021 28.7368 42.9326L31.5859 40.8304L34.4351 42.9326C34.7336 43.229 35.1406 42.9326 35.1406 42.2318Z" fill="white" stroke="#203354" stroke-width="1.79688"/>
<circle cx="31.625" cy="30.625" r="5.625" fill="white" stroke="#203354" stroke-width="1.95313"/>
<rect x="21" y="14" width="9.21875" height="1.5625" rx="0.78125" fill="#203354"/>
<rect x="21" y="18.375" width="17.5" height="1.5625" rx="0.78125" fill="#203354"/>
</svg>
