<svg width="49" height="41" viewBox="0 0 49 41" fill="none" xmlns="http://www.w3.org/2000/svg">
<path d="M9.67562 15.83L11.5148 24.3637L9.89241 25.1055C9.23034 25.2022 8.20037 25.0606 7.19512 24.6479C6.67691 24.4352 6.26841 24.1907 6.00405 23.9721C5.87788 23.8677 5.81533 23.7957 5.78846 23.7612C5.70729 23.3967 5.41377 22.0793 5.22722 21.3319C5.06581 20.5716 4.74797 19.2423 4.66445 18.8929L4.66276 18.8859L4.66249 18.8847L4.64466 18.81C4.56121 18.4417 4.60888 17.9457 4.83473 17.5236C5.03696 17.1457 5.38012 16.8217 5.97788 16.6837L9.67562 15.83ZM3.86761 24.2075L3.86928 24.2071L3.86761 24.2075ZM15.5783 36.1916L12.9242 28.0626L13.9687 27.585C14.115 27.6296 14.2839 27.6835 14.4811 27.747C14.4964 27.7519 14.5119 27.7569 14.5275 27.762C14.629 27.7947 14.7387 27.83 14.8542 27.8663L17.126 35.6256C17.2392 36.1563 17.1355 36.3962 17.0959 36.4671C17.0516 36.5464 16.9692 36.6275 16.8034 36.676C16.4661 36.7746 15.9392 36.6785 15.5783 36.1916ZM15.6285 23.9667C15.574 23.9491 15.5171 23.9307 15.4581 23.9119L13.3872 14.3029C15.6472 12.7122 17.8727 11.3632 19.8992 10.1527C20.0953 10.0355 20.2906 9.91911 20.4846 9.80342C22.5418 8.57698 24.4626 7.43182 25.837 6.33994C26.0254 6.19023 26.3111 6.10982 26.7383 6.3409C27.1844 6.58222 27.7895 7.20967 28.0746 8.44C28.075 8.44143 28.0753 8.44287 28.0756 8.4443L31.5136 23.6891L31.5136 23.6891L31.5159 23.6988C31.8006 24.932 31.5315 25.7627 31.236 26.1756C30.9533 26.5706 30.6613 26.6235 30.4263 26.5716C28.896 26.2333 27.0799 25.9631 24.9912 25.6524C24.9018 25.6391 24.812 25.6257 24.7217 25.6123C22.4944 25.2808 19.8925 24.8894 16.8045 24.3062C16.8036 24.306 16.8027 24.3058 16.8018 24.3057C16.5335 24.2547 16.1875 24.1468 15.6923 23.9873C15.6715 23.9806 15.6502 23.9737 15.6285 23.9667Z" fill="#203354" stroke="#203354" stroke-width="3.95"/>
<rect x="40.0688" y="1.71973" width="2.4366" height="6.82247" rx="1.2183" transform="rotate(54.8936 40.0688 1.71973)" fill="#203354"/>
<rect x="45.4136" y="20.9668" width="2.4366" height="6.82247" rx="1.2183" transform="rotate(103.064 45.4136 20.9668)" fill="#203354"/>
<rect x="37.8589" y="14.6436" width="2.4366" height="6.82247" rx="1.2183" transform="rotate(-103 37.8589 14.6436)" fill="#203354"/>
</svg>
