<svg width="14" height="17" viewBox="0 0 14 17" fill="none" xmlns="http://www.w3.org/2000/svg">
<path d="M13.625 15.9375H13V0.796875C13 0.356768 12.6642 0 12.25 0H1.75C1.33578 0 1 0.356768 1 0.796875V15.9375H0.375C0.167906 15.9375 0 16.1159 0 16.3359V17H14V16.3359C14 16.1159 13.8321 15.9375 13.625 15.9375ZM4 2.52344C4 2.3034 4.16791 2.125 4.375 2.125H5.625C5.83209 2.125 6 2.3034 6 2.52344V3.85156C6 4.0716 5.83209 4.25 5.625 4.25H4.375C4.16791 4.25 4 4.0716 4 3.85156V2.52344ZM4 5.71094C4 5.4909 4.16791 5.3125 4.375 5.3125H5.625C5.83209 5.3125 6 5.4909 6 5.71094V7.03906C6 7.2591 5.83209 7.4375 5.625 7.4375H4.375C4.16791 7.4375 4 7.2591 4 7.03906V5.71094ZM5.625 10.625H4.375C4.16791 10.625 4 10.4466 4 10.2266V8.89844C4 8.6784 4.16791 8.5 4.375 8.5H5.625C5.83209 8.5 6 8.6784 6 8.89844V10.2266C6 10.4466 5.83209 10.625 5.625 10.625ZM8 15.9375H6V13.1484C6 12.9284 6.16791 12.75 6.375 12.75H7.625C7.83209 12.75 8 12.9284 8 13.1484V15.9375ZM10 10.2266C10 10.4466 9.83209 10.625 9.625 10.625H8.375C8.16791 10.625 8 10.4466 8 10.2266V8.89844C8 8.6784 8.16791 8.5 8.375 8.5H9.625C9.83209 8.5 10 8.6784 10 8.89844V10.2266ZM10 7.03906C10 7.2591 9.83209 7.4375 9.625 7.4375H8.375C8.16791 7.4375 8 7.2591 8 7.03906V5.71094C8 5.4909 8.16791 5.3125 8.375 5.3125H9.625C9.83209 5.3125 10 5.4909 10 5.71094V7.03906ZM10 3.85156C10 4.0716 9.83209 4.25 9.625 4.25H8.375C8.16791 4.25 8 4.0716 8 3.85156V2.52344C8 2.3034 8.16791 2.125 8.375 2.125H9.625C9.83209 2.125 10 2.3034 10 2.52344V3.85156Z" fill="white"/>
</svg>
