<svg width="23" height="23" viewBox="0 0 23 23" fill="none" xmlns="http://www.w3.org/2000/svg">
<path d="M11.3921 0.869141C5.2822 0.869141 0.331848 5.69875 0.331848 11.6596C0.331848 17.6205 5.2822 22.4501 11.3921 22.4501C17.502 22.4501 22.4523 17.6205 22.4523 11.6596C22.4523 5.69875 17.502 0.869141 11.3921 0.869141ZM13.9386 16.102L10.0051 13.313C9.86684 13.2129 9.78657 13.0563 9.78657 12.8909V5.56822C9.78657 5.28105 10.0274 5.0461 10.3217 5.0461H12.4624C12.7568 5.0461 12.9976 5.28105 12.9976 5.56822V11.5595L15.8296 13.5697C16.0704 13.7394 16.1194 14.0657 15.9455 14.3007L14.6879 15.9889C14.5139 16.2195 14.1794 16.2717 13.9386 16.102Z" fill="#888888"/>
</svg>
