<svg width="20" height="11" viewBox="0 0 23 18" fill="none" xmlns="http://www.w3.org/2000/svg">
<path d="M11.4999 14.0624C8.77404 14.0624 6.56748 11.9984 6.36443 9.38285L2.5946 6.53276C2.09903 7.14096 1.64298 7.78396 1.27498 8.48708C1.19277 8.64616 1.14994 8.82192 1.14994 9.00018C1.14994 9.17843 1.19277 9.35419 1.27498 9.51328C3.22387 13.2331 7.0821 15.7499 11.4999 15.7499C12.467 15.7499 13.3999 15.6093 14.2991 15.3822L12.4343 13.9707C12.1263 14.0289 11.8135 14.0596 11.4999 14.0624ZM22.7778 16.105L18.8049 13.1013C20.0117 12.1063 21.0043 10.8866 21.7248 9.51292C21.807 9.35384 21.8498 9.17808 21.8498 8.99982C21.8498 8.82157 21.807 8.64581 21.7248 8.48672C19.7759 4.76688 15.9177 2.25007 11.4999 2.25007C9.64965 2.25226 7.82946 2.70793 6.20559 3.57545L1.63364 0.118568C1.57402 0.073184 1.50584 0.0397377 1.433 0.02014C1.36016 0.000542203 1.28409 -0.00482287 1.20913 0.00435132C1.13418 0.0135255 1.0618 0.0370592 0.996143 0.0736074C0.930486 0.110156 0.872834 0.159002 0.826482 0.217356L0.121031 1.10574C0.0274498 1.22351 -0.0144835 1.37282 0.00445412 1.52083C0.0233917 1.66884 0.101649 1.80342 0.222015 1.89499L21.3661 17.8814C21.4258 17.9268 21.4939 17.9603 21.5668 17.9799C21.6396 17.9995 21.7157 18.0048 21.7906 17.9956C21.8656 17.9865 21.938 17.9629 22.0036 17.9264C22.0693 17.8898 22.1269 17.841 22.1733 17.7826L22.8791 16.8943C22.9726 16.7764 23.0145 16.6271 22.9955 16.4791C22.9765 16.3311 22.8982 16.1965 22.7778 16.105ZM16.1753 11.1129L14.763 10.0448C14.8819 9.70856 14.945 9.35581 14.9499 9C14.9569 8.47908 14.8389 7.96381 14.6054 7.49559C14.372 7.02736 14.0295 6.61923 13.6055 6.30397C13.1815 5.98871 12.6879 5.77512 12.1643 5.68035C11.6406 5.58558 11.1015 5.61227 10.5903 5.75828C10.807 6.04553 10.9242 6.39301 10.9249 6.75002C10.9195 6.86883 10.901 6.98671 10.8695 7.10158L8.22419 5.10156C9.14311 4.35035 10.3024 3.93842 11.4999 3.93755C12.1796 3.93718 12.8527 4.06787 13.4807 4.32215C14.1087 4.57644 14.6794 4.94932 15.16 5.41948C15.6406 5.88965 16.0218 6.44788 16.2817 7.06225C16.5417 7.67662 16.6752 8.33509 16.6749 9C16.6749 9.76042 16.4848 10.4692 16.1753 11.1132V11.1129Z" fill="white"/>
</svg>
