<svg width="50" height="50" viewBox="0 0 50 50" fill="none" xmlns="http://www.w3.org/2000/svg">
<path d="M20.4141 44.0625C21.2344 44.0625 21.8594 43.2434 21.8594 42.6194V34.2335C21.8594 32.7123 23.4609 30.9181 25.2969 30.9181H25.7656C27.6016 30.9181 29.2031 32.7123 29.2031 34.2335V42.6194C29.2031 43.2434 29.8281 44.0625 30.6484 44.0625H43.6562C44.3984 44.0625 45.0625 43.4384 45.0625 42.6584V21.1671C45.0625 19.5679 44.2812 18.1498 43.5391 17.6177C38.5034 14.0075 29.2434 7.36326 26.3906 5.29781C25.8438 4.90073 25.2188 4.90073 24.6719 5.29781C21.8191 7.36326 12.5591 14.0075 7.52344 17.6177C6.78125 18.1498 6 19.5679 6 21.1671V42.6584C6 43.4384 6.66406 44.0625 7.40625 44.0625H16.1742H20.4141ZM20.4141 44.0625L20.5676 44.0529M7.75 21.1671C7.75 20.6464 7.87905 20.1422 8.07086 19.7288C8.27541 19.2879 8.48931 19.0785 8.54309 19.04C13.4829 15.4985 22.4963 9.03126 25.5312 6.83607C28.5662 9.03126 37.5796 15.4985 42.5194 19.04C42.5732 19.0785 42.7871 19.2879 42.9916 19.7288C43.1835 20.1422 43.3125 20.6464 43.3125 21.1671V42.3125H30.9531V34.2335C30.9531 32.8979 30.2808 31.6505 29.4189 30.7766C28.541 29.8864 27.2558 29.1681 25.7656 29.1681H25.2969C23.8067 29.1681 22.5215 29.8864 21.6436 30.7766C20.7817 31.6505 20.1094 32.8979 20.1094 34.2335V42.3125H7.75V21.1671Z" stroke="#203354" stroke-width="3"/>
</svg>
