<svg width="17" height="21" viewBox="0 0 17 21" fill="none" xmlns="http://www.w3.org/2000/svg">
<path d="M7.61216 20.1977C1.81033 11.997 0.733398 11.1554 0.733398 8.1415C0.733398 4.01316 4.16587 0.666504 8.40007 0.666504C12.6343 0.666504 16.0667 4.01316 16.0667 8.1415C16.0667 11.1554 14.9898 11.997 9.18797 20.1977C8.80724 20.7339 7.99285 20.7339 7.61216 20.1977ZM8.40007 11.2561C10.1643 11.2561 11.5945 9.86165 11.5945 8.1415C11.5945 6.42136 10.1643 5.02692 8.40007 5.02692C6.63581 5.02692 5.20562 6.42136 5.20562 8.1415C5.20562 9.86165 6.63581 11.2561 8.40007 11.2561Z" fill="#203354"/>
</svg>
