<svg width="123" height="39" viewBox="0 0 123 39" fill="none" xmlns="http://www.w3.org/2000/svg">
<path d="M37.5552 27.0284C37.5552 26.5733 37.5932 26.0898 37.669 25.5778C37.7638 25.0468 37.8966 24.4874 38.0672 23.8996C38.2569 23.2927 38.4844 22.6575 38.7499 21.9938L40.7979 22.7902C40.6083 23.3212 40.4376 23.8237 40.2859 24.2978C40.1532 24.7719 40.0489 25.2175 39.973 25.6347C39.9161 26.0519 39.8877 26.4501 39.8877 26.8293C39.8877 27.6258 40.0583 28.299 40.3997 28.8489C40.76 29.4178 41.253 29.8824 41.8788 30.2427C42.5046 30.603 43.2157 30.8684 44.0121 31.0391C44.8275 31.2098 45.6903 31.2951 46.6006 31.2951C47.7004 31.2951 48.7244 31.2003 49.6726 31.0107C50.6397 30.821 51.4835 30.5461 52.2041 30.1858C52.9437 29.8444 53.5221 29.4462 53.9392 28.9911C54.3564 28.555 54.565 28.0809 54.565 27.5689C54.565 27.3224 54.4702 27.0948 54.2806 26.8862C54.0909 26.6776 53.8065 26.4785 53.4272 26.2889C53.048 26.0993 52.5929 25.9191 52.0619 25.7484C51.5309 25.5588 50.9241 25.3692 50.2415 25.1796L50.7819 22.8187C51.768 23.1979 52.6403 23.5203 53.3988 23.7858C54.1573 24.0323 54.821 24.2314 55.3899 24.3831C55.9588 24.5348 56.4518 24.6486 56.869 24.7244C57.2862 24.7813 57.637 24.8098 57.9215 24.8098C58.3197 24.8098 58.6041 24.9236 58.7748 25.1511C58.9644 25.3597 59.0592 25.6157 59.0592 25.9191C59.0592 26.2225 58.9265 26.507 58.661 26.7724C58.3955 27.019 58.0542 27.1422 57.637 27.1422C57.5232 27.1422 57.4095 27.1422 57.2957 27.1422C57.1819 27.1422 57.0586 27.1422 56.9259 27.1422C56.8121 27.1422 56.6983 27.1422 56.5846 27.1422C56.6225 27.3129 56.6509 27.4456 56.6699 27.5404C56.6889 27.6542 56.6983 27.7964 56.6983 27.9671C56.6983 28.6687 56.4518 29.3514 55.9588 30.0151C55.4847 30.6788 54.7831 31.2761 53.8539 31.8071C52.9247 32.357 51.7964 32.7932 50.469 33.1156C49.1606 33.4379 47.6625 33.5991 45.9748 33.5991C44.4767 33.5991 43.0829 33.3526 41.7935 32.8596C40.5229 32.3855 39.4989 31.6649 38.7215 30.6978C37.944 29.7307 37.5552 28.5076 37.5552 27.0284ZM48.0228 38.9751C47.6246 38.9751 47.2832 38.8329 46.9988 38.5484C46.7333 38.283 46.6006 37.9606 46.6006 37.5813C46.6006 37.2021 46.7333 36.8702 46.9988 36.5858C47.2832 36.3013 47.6246 36.1591 48.0228 36.1591C48.4021 36.1591 48.7244 36.3013 48.9899 36.5858C49.2743 36.8702 49.4166 37.2021 49.4166 37.5813C49.4166 37.9606 49.2743 38.283 48.9899 38.5484C48.7244 38.8329 48.4021 38.9751 48.0228 38.9751ZM44.1259 38.9751C43.7277 38.9751 43.3863 38.8329 43.1019 38.5484C42.8364 38.283 42.7037 37.9606 42.7037 37.5813C42.7037 37.2021 42.8364 36.8702 43.1019 36.5858C43.3863 36.3013 43.7277 36.1591 44.1259 36.1591C44.5052 36.1591 44.8275 36.3013 45.093 36.5858C45.3775 36.8702 45.5197 37.2021 45.5197 37.5813C45.5197 37.9606 45.3775 38.283 45.093 38.5484C44.8275 38.8329 44.5052 38.9751 44.1259 38.9751ZM57.2197 27.1422L57.5041 24.8098H59.6943C61.2683 24.8098 62.4345 24.7244 63.193 24.5538C63.9515 24.3831 64.4446 24.1556 64.6721 23.8711C64.9186 23.5867 65.0419 23.2927 65.0419 22.9893C65.0419 22.5342 64.8712 22.0317 64.5299 21.4818C64.1886 20.9319 63.7524 20.3724 63.2215 19.8036C62.6905 19.2157 62.1216 18.6373 61.5148 18.0684C60.9269 17.4996 60.3675 16.9781 59.8366 16.504C59.3056 16.0299 58.8695 15.6222 58.5281 15.2809C58.1868 14.9206 58.0161 14.6646 58.0161 14.5129C58.0161 14.2284 58.0351 13.9535 58.073 13.688C58.1299 13.4225 58.1963 13.176 58.2721 12.9484C58.3669 12.7209 58.4807 12.5407 58.6135 12.408C58.9927 12.0098 59.5142 11.5926 60.1779 11.1564C60.8416 10.7013 61.6096 10.2462 62.4819 9.79111C63.3542 9.31703 64.2834 8.84296 65.2695 8.36889C66.2555 7.87585 67.2511 7.38281 68.2561 6.88978L69.2232 8.99466C68.313 9.44978 67.4028 9.90489 66.4926 10.36C65.5823 10.7961 64.7006 11.2323 63.8472 11.6684C62.9939 12.1046 62.188 12.5502 61.4295 13.0053C60.6899 13.4415 60.0167 13.8871 59.4099 14.3422L59.5806 13.3751C60.4339 14.0957 61.2398 14.7879 61.9983 15.4516C62.7569 16.1153 63.4775 16.7979 64.1601 17.4996C64.8428 18.1822 65.4781 18.9218 66.0659 19.7182C66.6538 20.5147 67.2037 21.3964 67.7157 22.3636C68.1139 23.1031 68.5785 23.6436 69.1095 23.9849C69.6404 24.3262 70.1619 24.5538 70.6739 24.6676C71.2049 24.7624 71.6315 24.8098 71.9539 24.8098C72.3521 24.8098 72.6366 24.9236 72.8072 25.1511C72.9969 25.3597 73.0917 25.6157 73.0917 25.9191C73.0917 26.2225 72.9589 26.507 72.6935 26.7724C72.428 27.019 72.0866 27.1422 71.6695 27.1422C71.1575 27.1422 70.5506 27.0664 69.849 26.9147C69.1663 26.744 68.4932 26.4216 67.8295 25.9476C67.1658 25.4735 66.6158 24.7529 66.1797 23.7858L67.033 24.1271C66.7486 24.6391 66.4167 25.0847 66.0375 25.464C65.6772 25.8243 65.2126 26.1372 64.6437 26.4027C64.0748 26.6492 63.3826 26.8388 62.5672 26.9716C61.7518 27.0853 60.7563 27.1422 59.5806 27.1422H57.2197ZM71.2375 27.1422L71.5219 24.8098C72.4701 24.8098 73.2096 24.7434 73.7406 24.6107C74.2715 24.459 74.6698 24.184 74.9352 23.7858C75.2197 23.3686 75.4472 22.7713 75.6179 21.9938C75.7886 21.2163 75.9972 20.2018 76.2437 18.9502L78.4624 19.3769C78.3865 19.7182 78.3012 20.0975 78.2064 20.5147C78.1115 20.9319 78.0262 21.349 77.9504 21.7662C77.8935 22.1644 77.865 22.5153 77.865 22.8187C77.865 23.1031 77.884 23.3686 77.9219 23.6151C77.9598 23.8616 78.1021 24.0702 78.3486 24.2409C78.5951 24.4116 79.0123 24.5538 79.6001 24.6676C80.188 24.7624 81.0318 24.8098 82.1317 24.8098C82.5299 24.8098 82.8144 24.9236 82.985 25.1511C83.1746 25.3597 83.2695 25.6157 83.2695 25.9191C83.2695 26.2225 83.1367 26.507 82.8712 26.7724C82.6058 27.019 82.2644 27.1422 81.8472 27.1422C80.6905 27.1422 79.7708 27.0853 79.0881 26.9716C78.4055 26.8388 77.884 26.6492 77.5237 26.4027C77.1824 26.1561 76.9358 25.8527 76.7841 25.4924C76.6514 25.1132 76.5471 24.677 76.4712 24.184L77.3246 24.2409C77.0212 24.8477 76.6893 25.3407 76.329 25.72C75.9877 26.0993 75.5895 26.3932 75.1344 26.6018C74.6792 26.8104 74.1293 26.9526 73.4846 27.0284C72.8588 27.1043 72.1098 27.1422 71.2375 27.1422ZM78.4055 32.5182C78.0072 32.5182 77.6659 32.376 77.3815 32.0916C77.116 31.8261 76.9832 31.5037 76.9832 31.1244C76.9832 30.7452 77.116 30.4133 77.3815 30.1289C77.6659 29.8444 78.0072 29.7022 78.4055 29.7022C78.7847 29.7022 79.1071 29.8444 79.3726 30.1289C79.657 30.4133 79.7992 30.7452 79.7992 31.1244C79.7992 31.5037 79.657 31.8261 79.3726 32.0916C79.1071 32.376 78.7847 32.5182 78.4055 32.5182ZM74.5086 32.5182C74.1104 32.5182 73.769 32.376 73.4846 32.0916C73.2191 31.8261 73.0864 31.5037 73.0864 31.1244C73.0864 30.7452 73.2191 30.4133 73.4846 30.1289C73.769 29.8444 74.1104 29.7022 74.5086 29.7022C74.8878 29.7022 75.2102 29.8444 75.4757 30.1289C75.7601 30.4133 75.9024 30.7452 75.9024 31.1244C75.9024 31.5037 75.7601 31.8261 75.4757 32.0916C75.2102 32.376 74.8878 32.5182 74.5086 32.5182ZM81.4219 27.1422L81.7064 24.8098C82.8252 24.8098 83.6975 24.7719 84.3232 24.696C84.949 24.6012 85.3946 24.3831 85.6601 24.0418C85.9256 23.6815 86.0584 23.1221 86.0584 22.3636C86.0584 21.8895 85.9825 21.3301 85.8308 20.6853C85.6791 20.0216 85.48 19.32 85.2335 18.5804C84.9869 17.8409 84.7215 17.1108 84.437 16.3902L86.741 15.5369C86.9875 16.1437 87.2151 16.8359 87.4237 17.6133C87.6512 18.3908 87.8409 19.1588 87.9926 19.9173C88.1443 20.6759 88.2201 21.3396 88.2201 21.9084C88.2201 22.8566 88.0874 23.6625 87.8219 24.3262C87.5754 24.9899 87.1772 25.5304 86.6272 25.9476C86.0773 26.3647 85.3662 26.6681 84.4939 26.8578C83.6406 27.0474 82.6166 27.1422 81.4219 27.1422ZM87.6228 12.5787C87.2246 12.5787 86.8832 12.4459 86.5988 12.1804C86.3333 11.896 86.2006 11.5641 86.2006 11.1849C86.2006 10.8056 86.3333 10.4738 86.5988 10.1893C86.8832 9.90489 87.2246 9.76267 87.6228 9.76267C88.0021 9.76267 88.3244 9.90489 88.5899 10.1893C88.8744 10.4738 89.0166 10.8056 89.0166 11.1849C89.0166 11.5641 88.8744 11.896 88.5899 12.1804C88.3244 12.4459 88.0021 12.5787 87.6228 12.5787ZM83.7259 12.5787C83.3277 12.5787 82.9864 12.4459 82.7019 12.1804C82.4364 11.896 82.3037 11.5641 82.3037 11.1849C82.3037 10.8056 82.4364 10.4738 82.7019 10.1893C82.9864 9.90489 83.3277 9.76267 83.7259 9.76267C84.1052 9.76267 84.4275 9.90489 84.693 10.1893C84.9775 10.4738 85.1197 10.8056 85.1197 11.1849C85.1197 11.5641 84.9775 11.896 84.693 12.1804C84.4275 12.4459 84.1052 12.5787 83.7259 12.5787ZM100.019 27L99.4499 6.69066H101.754L102.323 27H100.019ZM103.145 33.5422L102.32 31.3804C104.235 30.7736 105.705 30.0436 106.729 29.1902C107.772 28.3559 108.483 27.4836 108.862 26.5733C109.26 25.6631 109.459 24.7908 109.459 23.9564C109.459 23.4255 109.402 22.9135 109.289 22.4204C109.175 21.9274 108.976 21.368 108.691 20.7422C108.407 20.1164 108.009 19.339 107.497 18.4098L109.573 17.3573C110.294 18.5899 110.806 19.7561 111.109 20.856C111.431 21.9559 111.593 22.923 111.593 23.7573C111.593 24.952 111.393 26.0329 110.995 27C110.616 27.9671 110.104 28.8204 109.459 29.56C108.833 30.3185 108.141 30.9633 107.383 31.4942C106.643 32.0252 105.894 32.4613 105.136 32.8027C104.396 33.144 103.732 33.3905 103.145 33.5422ZM115.58 27L115.097 8.68177H117.401L117.884 27H115.58ZM113.703 6.97511L113.361 5.43911C113.854 5.32533 114.253 5.23052 114.556 5.15466C114.86 5.07881 115.201 4.99348 115.58 4.89866L115.438 5.496C114.945 5.34429 114.471 5.02192 114.016 4.52889C113.58 4.03585 113.361 3.47644 113.361 2.85066C113.361 2.28177 113.494 1.8077 113.76 1.42844C114.044 1.03022 114.404 0.736293 114.841 0.546663C115.296 0.357033 115.779 0.262219 116.291 0.262219C116.5 0.262219 116.718 0.281182 116.945 0.319108C117.192 0.357034 117.42 0.413923 117.628 0.489775L117.401 1.912C117.211 1.87407 117.031 1.83614 116.86 1.79822C116.689 1.76029 116.5 1.74133 116.291 1.74133C115.855 1.74133 115.514 1.83614 115.267 2.02578C115.021 2.19644 114.897 2.44296 114.897 2.76533C114.897 3.16355 115.021 3.50489 115.267 3.78933C115.533 4.07377 115.827 4.30133 116.149 4.472C116.49 4.6237 116.765 4.69955 116.974 4.69955L115.808 4.81333C116.32 4.68059 116.794 4.54785 117.23 4.41511C117.685 4.2634 118.093 4.12118 118.453 3.98844L118.908 5.43911C118.453 5.60978 117.913 5.78992 117.287 5.97955C116.68 6.16918 116.064 6.34933 115.438 6.52C114.812 6.69066 114.234 6.84237 113.703 6.97511Z" fill="white"/>
<path fill-rule="evenodd" clip-rule="evenodd" d="M15.8464 4.96295H0L6.67215 11.6351H22.5185L15.8464 4.96295ZM6.67214 11.6351V27.4815L-8.58307e-06 20.8093V4.96296L6.67214 11.6351Z" fill="white"/>
<path fill-rule="evenodd" clip-rule="evenodd" d="M6.67219 27.4815L22.5186 27.4815L15.8464 20.8094L3.62396e-05 20.8094L6.67219 27.4815ZM15.8464 20.8093L15.8464 4.96298L22.5186 11.6351L22.5186 27.4815L15.8464 20.8093Z" fill="white"/>
</svg>
