<svg width="50" height="50" viewBox="0 0 50 50" fill="none" xmlns="http://www.w3.org/2000/svg">
<path d="M30.4847 15.5306V12.5408C30.4847 11.5098 29.3507 10.1008 27.976 10.1008H13.6111C12.3396 10.1008 11.1711 11.338 11.1711 12.5408V25.3593V37.4217C11.1711 38.6245 12.3396 39.8616 13.6111 39.8616H27.976C29.3507 39.8616 30.4847 38.4526 30.4847 37.4217V34.4318V15.5306Z" fill="white"/>
<path d="M39.4447 23.2893H22.7773C22.0213 23.2893 21.5058 23.9424 21.5058 24.5609C21.5058 25.1793 22.0213 25.8324 22.7773 25.8324H39.4447L37.1766 28.1005C35.9051 29.372 37.8295 31.1246 39.0667 29.9906L42.4002 26.6572C42.9157 26.0041 43.1562 25.4886 43.1562 24.5609C43.1562 23.6331 42.9157 23.1176 42.4002 22.4645L39.0667 19.1311C37.8295 17.9971 35.9051 19.7497 37.1766 21.0212L39.4447 23.2893Z" fill="#203354"/>
<path d="M32 16C31.9507 18.6209 28 18.6209 28 16V13C28 11.969 27.3746 11 26 11H14C12.7285 11 12 11.5972 12 12.8V25.0077V37C12 38.4299 12.7285 39 14 39H26C27.8 39 28 38.4299 28 37V34C28 31.3 32 31.3 32 34V37C32 40.5 31 43 26 43H13.4C9.8 43 8 40.6803 8 37V25.0077V12.4C8 8 10 7 14 7H26C31 7 32 9.4 32 13V16Z" fill="#203354"/>
</svg>
