<svg width="123" height="37" viewBox="0 0 123 37" fill="none" xmlns="http://www.w3.org/2000/svg">
<path d="M37.5133 25.0284C37.5133 24.5733 37.5513 24.0898 37.6271 23.5778C37.7219 23.0468 37.8547 22.4874 38.0253 21.8996C38.215 21.2927 38.4425 20.6575 38.708 19.9938L40.756 20.7902C40.5664 21.3212 40.3957 21.8237 40.244 22.2978C40.1113 22.7719 40.007 23.2175 39.9311 23.6347C39.8742 24.0519 39.8458 24.4501 39.8458 24.8293C39.8458 25.6258 40.0164 26.299 40.3578 26.8489C40.7181 27.4178 41.2111 27.8824 41.8369 28.2427C42.4627 28.603 43.1738 28.8684 43.9702 29.0391C44.7856 29.2098 45.6484 29.2951 46.5587 29.2951C47.6585 29.2951 48.6825 29.2003 49.6307 29.0107C50.5978 28.821 51.4416 28.5461 52.1622 28.1858C52.9018 27.8444 53.4802 27.4462 53.8973 26.9911C54.3145 26.555 54.5231 26.0809 54.5231 25.5689C54.5231 25.3224 54.4283 25.0948 54.2387 24.8862C54.049 24.6776 53.7646 24.4785 53.3853 24.2889C53.0061 24.0993 52.551 23.9191 52.02 23.7484C51.489 23.5588 50.8822 23.3692 50.1996 23.1796L50.74 20.8187C51.7261 21.1979 52.5984 21.5203 53.3569 21.7858C54.1154 22.0323 54.7791 22.2314 55.348 22.3831C55.9169 22.5348 56.4099 22.6486 56.8271 22.7244C57.2443 22.7813 57.5951 22.8098 57.8796 22.8098C58.2778 22.8098 58.5622 22.9236 58.7329 23.1511C58.9225 23.3597 59.0173 23.6157 59.0173 23.9191C59.0173 24.2225 58.8846 24.507 58.6191 24.7724C58.3536 25.019 58.0123 25.1422 57.5951 25.1422C57.4813 25.1422 57.3676 25.1422 57.2538 25.1422C57.14 25.1422 57.0167 25.1422 56.884 25.1422C56.7702 25.1422 56.6565 25.1422 56.5427 25.1422C56.5806 25.3129 56.609 25.4456 56.628 25.5404C56.647 25.6542 56.6564 25.7964 56.6564 25.9671C56.6564 26.6687 56.4099 27.3514 55.9169 28.0151C55.4428 28.6788 54.7412 29.2761 53.812 29.8071C52.8828 30.357 51.7545 30.7932 50.4271 31.1156C49.1187 31.4379 47.6206 31.5991 45.9329 31.5991C44.4348 31.5991 43.041 31.3526 41.7516 30.8596C40.481 30.3855 39.457 29.6649 38.6796 28.6978C37.9021 27.7307 37.5133 26.5076 37.5133 25.0284ZM47.9809 36.9751C47.5827 36.9751 47.2413 36.8329 46.9569 36.5484C46.6914 36.283 46.5587 35.9606 46.5587 35.5813C46.5587 35.2021 46.6914 34.8702 46.9569 34.5858C47.2413 34.3013 47.5827 34.1591 47.9809 34.1591C48.3602 34.1591 48.6825 34.3013 48.948 34.5858C49.2324 34.8702 49.3747 35.2021 49.3747 35.5813C49.3747 35.9606 49.2324 36.283 48.948 36.5484C48.6825 36.8329 48.3602 36.9751 47.9809 36.9751ZM44.084 36.9751C43.6858 36.9751 43.3444 36.8329 43.06 36.5484C42.7945 36.283 42.6618 35.9606 42.6618 35.5813C42.6618 35.2021 42.7945 34.8702 43.06 34.5858C43.3444 34.3013 43.6858 34.1591 44.084 34.1591C44.4633 34.1591 44.7856 34.3013 45.0511 34.5858C45.3356 34.8702 45.4778 35.2021 45.4778 35.5813C45.4778 35.9606 45.3356 36.283 45.0511 36.5484C44.7856 36.8329 44.4633 36.9751 44.084 36.9751ZM57.1778 25.1422L57.4622 22.8098H59.6525C61.2264 22.8098 62.3926 22.7244 63.1511 22.5538C63.9096 22.3831 64.4027 22.1556 64.6302 21.8711C64.8767 21.5867 65 21.2927 65 20.9893C65 20.5342 64.8293 20.0317 64.488 19.4818C64.1467 18.9319 63.7105 18.3724 63.1796 17.8036C62.6486 17.2157 62.0797 16.6373 61.4729 16.0684C60.885 15.4996 60.3256 14.9781 59.7947 14.504C59.2637 14.0299 58.8276 13.6222 58.4862 13.2809C58.1449 12.9206 57.9742 12.6646 57.9742 12.5129C57.9742 12.2284 57.9932 11.9535 58.0311 11.688C58.088 11.4225 58.1544 11.176 58.2302 10.9484C58.325 10.7209 58.4388 10.5407 58.5716 10.408C58.9508 10.0098 59.4723 9.59259 60.136 9.15644C60.7997 8.70133 61.5677 8.24622 62.44 7.79111C63.3123 7.31703 64.2415 6.84296 65.2276 6.36889C66.2136 5.87585 67.2092 5.38281 68.2142 4.88978L69.1813 6.99466C68.2711 7.44978 67.3609 7.90489 66.4507 8.36C65.5405 8.79615 64.6587 9.23229 63.8053 9.66844C62.952 10.1046 62.1461 10.5502 61.3876 11.0053C60.648 11.4415 59.9748 11.8871 59.368 12.3422L59.5387 11.3751C60.392 12.0957 61.1979 12.7879 61.9565 13.4516C62.715 14.1153 63.4356 14.7979 64.1182 15.4996C64.8009 16.1822 65.4362 16.9218 66.024 17.7182C66.6119 18.5147 67.1618 19.3964 67.6738 20.3636C68.072 21.1031 68.5366 21.6436 69.0676 21.9849C69.5985 22.3262 70.12 22.5538 70.632 22.6676C71.163 22.7624 71.5896 22.8098 71.912 22.8098C72.3102 22.8098 72.5947 22.9236 72.7653 23.1511C72.955 23.3597 73.0498 23.6157 73.0498 23.9191C73.0498 24.2225 72.917 24.507 72.6516 24.7724C72.3861 25.019 72.0447 25.1422 71.6276 25.1422C71.1156 25.1422 70.5087 25.0664 69.8071 24.9147C69.1245 24.744 68.4513 24.4216 67.7876 23.9476C67.1239 23.4735 66.5739 22.7529 66.1378 21.7858L66.9911 22.1271C66.7067 22.6391 66.3748 23.0847 65.9956 23.464C65.6353 23.8243 65.1707 24.1372 64.6018 24.4027C64.0329 24.6492 63.3407 24.8388 62.5253 24.9716C61.7099 25.0853 60.7144 25.1422 59.5387 25.1422H57.1778ZM71.1956 25.1422L71.48 22.8098C72.4282 22.8098 73.1677 22.7434 73.6987 22.6107C74.2296 22.459 74.6279 22.184 74.8933 21.7858C75.1778 21.3686 75.4053 20.7713 75.576 19.9938C75.7467 19.2163 75.9553 18.2018 76.2018 16.9502L78.4205 17.3769C78.3446 17.7182 78.2593 18.0975 78.1645 18.5147C78.0696 18.9319 77.9843 19.349 77.9085 19.7662C77.8516 20.1644 77.8231 20.5153 77.8231 20.8187C77.8231 21.1031 77.8421 21.3686 77.88 21.6151C77.9179 21.8616 78.0602 22.0702 78.3067 22.2409C78.5532 22.4116 78.9704 22.5538 79.5582 22.6676C80.1461 22.7624 80.9899 22.8098 82.0898 22.8098C82.488 22.8098 82.7725 22.9236 82.9431 23.1511C83.1328 23.3597 83.2276 23.6157 83.2276 23.9191C83.2276 24.2225 83.0948 24.507 82.8293 24.7724C82.5639 25.019 82.2225 25.1422 81.8053 25.1422C80.6486 25.1422 79.7289 25.0853 79.0462 24.9716C78.3636 24.8388 77.8421 24.6492 77.4818 24.4027C77.1405 24.1561 76.8939 23.8527 76.7422 23.4924C76.6095 23.1132 76.5052 22.677 76.4293 22.184L77.2827 22.2409C76.9793 22.8477 76.6474 23.3407 76.2871 23.72C75.9458 24.0993 75.5476 24.3932 75.0925 24.6018C74.6373 24.8104 74.0874 24.9526 73.4427 25.0284C72.8169 25.1043 72.0679 25.1422 71.1956 25.1422ZM78.3636 30.5182C77.9653 30.5182 77.624 30.376 77.3396 30.0916C77.0741 29.8261 76.9413 29.5037 76.9413 29.1244C76.9413 28.7452 77.0741 28.4133 77.3396 28.1289C77.624 27.8444 77.9653 27.7022 78.3636 27.7022C78.7428 27.7022 79.0652 27.8444 79.3307 28.1289C79.6151 28.4133 79.7573 28.7452 79.7573 29.1244C79.7573 29.5037 79.6151 29.8261 79.3307 30.0916C79.0652 30.376 78.7428 30.5182 78.3636 30.5182ZM74.4667 30.5182C74.0685 30.5182 73.7271 30.376 73.4427 30.0916C73.1772 29.8261 73.0445 29.5037 73.0445 29.1244C73.0445 28.7452 73.1772 28.4133 73.4427 28.1289C73.7271 27.8444 74.0685 27.7022 74.4667 27.7022C74.8459 27.7022 75.1683 27.8444 75.4338 28.1289C75.7182 28.4133 75.8605 28.7452 75.8605 29.1244C75.8605 29.5037 75.7182 29.8261 75.4338 30.0916C75.1683 30.376 74.8459 30.5182 74.4667 30.5182ZM81.38 25.1422L81.6645 22.8098C82.7833 22.8098 83.6556 22.7719 84.2813 22.696C84.9071 22.6012 85.3527 22.3831 85.6182 22.0418C85.8837 21.6815 86.0165 21.1221 86.0165 20.3636C86.0165 19.8895 85.9406 19.3301 85.7889 18.6853C85.6372 18.0216 85.4381 17.32 85.1916 16.5804C84.945 15.8409 84.6796 15.1108 84.3951 14.3902L86.6991 13.5369C86.9456 14.1437 87.1732 14.8359 87.3818 15.6133C87.6093 16.3908 87.799 17.1588 87.9507 17.9173C88.1024 18.6759 88.1782 19.3396 88.1782 19.9084C88.1782 20.8566 88.0455 21.6625 87.78 22.3262C87.5335 22.9899 87.1353 23.5304 86.5853 23.9476C86.0354 24.3647 85.3243 24.6681 84.452 24.8578C83.5987 25.0474 82.5747 25.1422 81.38 25.1422ZM87.5809 10.5787C87.1827 10.5787 86.8413 10.4459 86.5569 10.1804C86.2914 9.896 86.1587 9.56415 86.1587 9.18489C86.1587 8.80563 86.2914 8.47378 86.5569 8.18933C86.8413 7.90489 87.1827 7.76267 87.5809 7.76267C87.9602 7.76267 88.2825 7.90489 88.548 8.18933C88.8325 8.47378 88.9747 8.80563 88.9747 9.18489C88.9747 9.56415 88.8325 9.896 88.548 10.1804C88.2825 10.4459 87.9602 10.5787 87.5809 10.5787ZM83.684 10.5787C83.2858 10.5787 82.9445 10.4459 82.66 10.1804C82.3945 9.896 82.2618 9.56415 82.2618 9.18489C82.2618 8.80563 82.3945 8.47378 82.66 8.18933C82.9445 7.90489 83.2858 7.76267 83.684 7.76267C84.0633 7.76267 84.3856 7.90489 84.6511 8.18933C84.9356 8.47378 85.0778 8.80563 85.0778 9.18489C85.0778 9.56415 84.9356 9.896 84.6511 10.1804C84.3856 10.4459 84.0633 10.5787 83.684 10.5787ZM99.9769 25L99.408 4.69066H101.712L102.281 25H99.9769ZM103.103 31.5422L102.278 29.3804C104.193 28.7736 105.663 28.0436 106.687 27.1902C107.73 26.3559 108.441 25.4836 108.82 24.5733C109.218 23.6631 109.417 22.7908 109.417 21.9564C109.417 21.4255 109.36 20.9135 109.247 20.4204C109.133 19.9274 108.934 19.368 108.649 18.7422C108.365 18.1164 107.967 17.339 107.455 16.4098L109.531 15.3573C110.252 16.5899 110.764 17.7561 111.067 18.856C111.389 19.9559 111.551 20.923 111.551 21.7573C111.551 22.952 111.352 24.0329 110.953 25C110.574 25.9671 110.062 26.8204 109.417 27.56C108.792 28.3185 108.099 28.9633 107.341 29.4942C106.601 30.0252 105.852 30.4613 105.094 30.8027C104.354 31.144 103.691 31.3905 103.103 31.5422ZM115.624 25L115.055 4.69066H117.359L117.928 25H115.624Z" fill="#203354"/>
<path fill-rule="evenodd" clip-rule="evenodd" d="M15.8464 2.96289H1.62125e-05L6.67217 9.63504H22.5185L15.8464 2.96289ZM6.67216 9.63505V25.4814L7.62939e-06 18.8093V2.96289L6.67216 9.63505Z" fill="#203354"/>
<path fill-rule="evenodd" clip-rule="evenodd" d="M6.67215 25.4814L22.5185 25.4814L15.8464 18.8093L-8.10623e-06 18.8093L6.67215 25.4814ZM15.8464 18.8093L15.8464 2.96292L22.5185 9.63508L22.5185 25.4814L15.8464 18.8093Z" fill="#203354"/>
</svg>
