<svg width="122" height="40" viewBox="0 0 122 40" fill="none" xmlns="http://www.w3.org/2000/svg">
<path d="M37.5076 27.0284C37.5076 26.5733 37.5456 26.0898 37.6214 25.5778C37.7162 25.0468 37.849 24.4874 38.0196 23.8996C38.2093 23.2927 38.4368 22.6575 38.7023 21.9938L40.7503 22.7902C40.5607 23.3212 40.39 23.8237 40.2383 24.2978C40.1056 24.7719 40.0013 25.2175 39.9254 25.6347C39.8685 26.0519 39.8401 26.4501 39.8401 26.8293C39.8401 27.6258 40.0107 28.299 40.3521 28.8489C40.7124 29.4178 41.2054 29.8824 41.8312 30.2427C42.457 30.603 43.1681 30.8684 43.9645 31.0391C44.7799 31.2098 45.6427 31.2951 46.553 31.2951C47.6528 31.2951 48.6768 31.2003 49.625 31.0107C50.5921 30.821 51.4359 30.5461 52.1565 30.1858C52.8961 29.8444 53.4744 29.4462 53.8916 28.9911C54.3088 28.555 54.5174 28.0809 54.5174 27.5689C54.5174 27.3224 54.4226 27.0948 54.233 26.8862C54.0433 26.6776 53.7589 26.4785 53.3796 26.2889C53.0004 26.0993 52.5453 25.9191 52.0143 25.7484C51.4833 25.5588 50.8765 25.3692 50.1938 25.1796L50.7343 22.8187C51.7204 23.1979 52.5927 23.5203 53.3512 23.7858C54.1097 24.0323 54.7734 24.2314 55.3423 24.3831C55.9112 24.5348 56.4042 24.6486 56.8214 24.7244C57.2386 24.7813 57.5894 24.8098 57.8739 24.8098C58.2721 24.8098 58.5565 24.9236 58.7272 25.1511C58.9168 25.3597 59.0116 25.6157 59.0116 25.9191C59.0116 26.2225 58.8789 26.507 58.6134 26.7724C58.3479 27.019 58.0066 27.1422 57.5894 27.1422C57.4756 27.1422 57.3619 27.1422 57.2481 27.1422C57.1343 27.1422 57.011 27.1422 56.8783 27.1422C56.7645 27.1422 56.6507 27.1422 56.537 27.1422C56.5749 27.3129 56.6033 27.4456 56.6223 27.5404C56.6413 27.6542 56.6507 27.7964 56.6507 27.9671C56.6507 28.6687 56.4042 29.3514 55.9112 30.0151C55.4371 30.6788 54.7355 31.2761 53.8063 31.8071C52.8771 32.357 51.7488 32.7932 50.4214 33.1156C49.113 33.4379 47.6149 33.5991 45.9272 33.5991C44.4291 33.5991 43.0353 33.3526 41.7458 32.8596C40.4753 32.3855 39.4513 31.6649 38.6738 30.6978C37.8964 29.7307 37.5076 28.5076 37.5076 27.0284ZM47.9752 38.9751C47.577 38.9751 47.2356 38.8329 46.9512 38.5484C46.6857 38.283 46.553 37.9606 46.553 37.5813C46.553 37.2021 46.6857 36.8702 46.9512 36.5858C47.2356 36.3013 47.577 36.1591 47.9752 36.1591C48.3544 36.1591 48.6768 36.3013 48.9423 36.5858C49.2267 36.8702 49.369 37.2021 49.369 37.5813C49.369 37.9606 49.2267 38.283 48.9423 38.5484C48.6768 38.8329 48.3544 38.9751 47.9752 38.9751ZM44.0783 38.9751C43.6801 38.9751 43.3387 38.8329 43.0543 38.5484C42.7888 38.283 42.6561 37.9606 42.6561 37.5813C42.6561 37.2021 42.7888 36.8702 43.0543 36.5858C43.3387 36.3013 43.6801 36.1591 44.0783 36.1591C44.4576 36.1591 44.7799 36.3013 45.0454 36.5858C45.3298 36.8702 45.4721 37.2021 45.4721 37.5813C45.4721 37.9606 45.3298 38.283 45.0454 38.5484C44.7799 38.8329 44.4576 38.9751 44.0783 38.9751ZM57.1721 27.1422L57.4565 24.8098H59.6467C61.2207 24.8098 62.3869 24.7244 63.1454 24.5538C63.9039 24.3831 64.397 24.1556 64.6245 23.8711C64.871 23.5867 64.9943 23.2927 64.9943 22.9893C64.9943 22.5342 64.8236 22.0317 64.4823 21.4818C64.141 20.9319 63.7048 20.3724 63.1739 19.8036C62.6429 19.2157 62.074 18.6373 61.4672 18.0684C60.8793 17.4996 60.3199 16.9781 59.789 16.504C59.258 16.0299 58.8219 15.6222 58.4805 15.2809C58.1392 14.9206 57.9685 14.6646 57.9685 14.5129C57.9685 14.2284 57.9875 13.9535 58.0254 13.688C58.0823 13.4225 58.1487 13.176 58.2245 12.9484C58.3193 12.7209 58.4331 12.5407 58.5659 12.408C58.9451 12.0098 59.4666 11.5926 60.1303 11.1564C60.794 10.7013 61.562 10.2462 62.4343 9.79111C63.3066 9.31703 64.2358 8.84296 65.2219 8.36889C66.2079 7.87585 67.2035 7.38281 68.2085 6.88978L69.1756 8.99466C68.2654 9.44978 67.3552 9.90489 66.445 10.36C65.5347 10.7961 64.653 11.2323 63.7996 11.6684C62.9463 12.1046 62.1404 12.5502 61.3819 13.0053C60.6423 13.4415 59.9691 13.8871 59.3623 14.3422L59.533 13.3751C60.3863 14.0957 61.1922 14.7879 61.9507 15.4516C62.7093 16.1153 63.4299 16.7979 64.1125 17.4996C64.7952 18.1822 65.4304 18.9218 66.0183 19.7182C66.6061 20.5147 67.1561 21.3964 67.6681 22.3636C68.0663 23.1031 68.5309 23.6436 69.0619 23.9849C69.5928 24.3262 70.1143 24.5538 70.6263 24.6676C71.1573 24.7624 71.5839 24.8098 71.9063 24.8098C72.3045 24.8098 72.589 24.9236 72.7596 25.1511C72.9493 25.3597 73.0441 25.6157 73.0441 25.9191C73.0441 26.2225 72.9113 26.507 72.6459 26.7724C72.3804 27.019 72.039 27.1422 71.6219 27.1422C71.1099 27.1422 70.503 27.0664 69.8014 26.9147C69.1187 26.744 68.4456 26.4216 67.7819 25.9476C67.1181 25.4735 66.5682 24.7529 66.1321 23.7858L66.9854 24.1271C66.701 24.6391 66.3691 25.0847 65.9899 25.464C65.6296 25.8243 65.165 26.1372 64.5961 26.4027C64.0272 26.6492 63.335 26.8388 62.5196 26.9716C61.7042 27.0853 60.7087 27.1422 59.533 27.1422H57.1721ZM71.1899 27.1422L71.4743 24.8098C72.4224 24.8098 73.162 24.7434 73.693 24.6107C74.2239 24.459 74.6222 24.184 74.8876 23.7858C75.1721 23.3686 75.3996 22.7713 75.5703 21.9938C75.741 21.2163 75.9496 20.2018 76.1961 18.9502L78.4147 19.3769C78.3389 19.7182 78.2536 20.0975 78.1587 20.5147C78.0639 20.9319 77.9786 21.349 77.9027 21.7662C77.8459 22.1644 77.8174 22.5153 77.8174 22.8187C77.8174 23.1031 77.8364 23.3686 77.8743 23.6151C77.9122 23.8616 78.0544 24.0702 78.301 24.2409C78.5475 24.4116 78.9647 24.5538 79.5525 24.6676C80.1404 24.7624 80.9842 24.8098 82.0841 24.8098C82.4823 24.8098 82.7667 24.9236 82.9374 25.1511C83.127 25.3597 83.2219 25.6157 83.2219 25.9191C83.2219 26.2225 83.0891 26.507 82.8236 26.7724C82.5582 27.019 82.2168 27.1422 81.7996 27.1422C80.6429 27.1422 79.7232 27.0853 79.0405 26.9716C78.3579 26.8388 77.8364 26.6492 77.4761 26.4027C77.1347 26.1561 76.8882 25.8527 76.7365 25.4924C76.6038 25.1132 76.4995 24.677 76.4236 24.184L77.277 24.2409C76.9736 24.8477 76.6417 25.3407 76.2814 25.72C75.9401 26.0993 75.5419 26.3932 75.0867 26.6018C74.6316 26.8104 74.0817 26.9526 73.437 27.0284C72.8112 27.1043 72.0622 27.1422 71.1899 27.1422ZM78.3579 32.5182C77.9596 32.5182 77.6183 32.376 77.3339 32.0916C77.0684 31.8261 76.9356 31.5037 76.9356 31.1244C76.9356 30.7452 77.0684 30.4133 77.3339 30.1289C77.6183 29.8444 77.9596 29.7022 78.3579 29.7022C78.7371 29.7022 79.0595 29.8444 79.325 30.1289C79.6094 30.4133 79.7516 30.7452 79.7516 31.1244C79.7516 31.5037 79.6094 31.8261 79.325 32.0916C79.0595 32.376 78.7371 32.5182 78.3579 32.5182ZM74.461 32.5182C74.0627 32.5182 73.7214 32.376 73.437 32.0916C73.1715 31.8261 73.0387 31.5037 73.0387 31.1244C73.0387 30.7452 73.1715 30.4133 73.437 30.1289C73.7214 29.8444 74.0627 29.7022 74.461 29.7022C74.8402 29.7022 75.1626 29.8444 75.4281 30.1289C75.7125 30.4133 75.8547 30.7452 75.8547 31.1244C75.8547 31.5037 75.7125 31.8261 75.4281 32.0916C75.1626 32.376 74.8402 32.5182 74.461 32.5182ZM81.3743 27.1422L81.6587 24.8098C82.7776 24.8098 83.6499 24.7719 84.2756 24.696C84.9014 24.6012 85.347 24.3831 85.6125 24.0418C85.878 23.6815 86.0107 23.1221 86.0107 22.3636C86.0107 21.8895 85.9349 21.3301 85.7832 20.6853C85.6315 20.0216 85.4324 19.32 85.1859 18.5804C84.9393 17.8409 84.6739 17.1108 84.3894 16.3902L86.6934 15.5369C86.9399 16.1437 87.1675 16.8359 87.3761 17.6133C87.6036 18.3908 87.7933 19.1588 87.945 19.9173C88.0967 20.6759 88.1725 21.3396 88.1725 21.9084C88.1725 22.8566 88.0398 23.6625 87.7743 24.3262C87.5278 24.9899 87.1296 25.5304 86.5796 25.9476C86.0297 26.3647 85.3186 26.6681 84.4463 26.8578C83.593 27.0474 82.569 27.1422 81.3743 27.1422ZM87.5752 12.5787C87.177 12.5787 86.8356 12.4459 86.5512 12.1804C86.2857 11.896 86.153 11.5641 86.153 11.1849C86.153 10.8056 86.2857 10.4738 86.5512 10.1893C86.8356 9.90489 87.177 9.76267 87.5752 9.76267C87.9544 9.76267 88.2768 9.90489 88.5423 10.1893C88.8267 10.4738 88.969 10.8056 88.969 11.1849C88.969 11.5641 88.8267 11.896 88.5423 12.1804C88.2768 12.4459 87.9544 12.5787 87.5752 12.5787ZM83.6783 12.5787C83.2801 12.5787 82.9387 12.4459 82.6543 12.1804C82.3888 11.896 82.2561 11.5641 82.2561 11.1849C82.2561 10.8056 82.3888 10.4738 82.6543 10.1893C82.9387 9.90489 83.2801 9.76267 83.6783 9.76267C84.0576 9.76267 84.3799 9.90489 84.6454 10.1893C84.9299 10.4738 85.0721 10.8056 85.0721 11.1849C85.0721 11.5641 84.9299 11.896 84.6454 12.1804C84.3799 12.4459 84.0576 12.5787 83.6783 12.5787ZM99.9712 27L99.4023 6.69066H101.706L102.275 27H99.9712ZM103.097 33.5422L102.272 31.3804C104.187 30.7736 105.657 30.0436 106.681 29.1902C107.724 28.3559 108.435 27.4836 108.814 26.5733C109.213 25.6631 109.412 24.7908 109.412 23.9564C109.412 23.4255 109.355 22.9135 109.241 22.4204C109.127 21.9274 108.928 21.368 108.644 20.7422C108.359 20.1164 107.961 19.339 107.449 18.4098L109.525 17.3573C110.246 18.5899 110.758 19.7561 111.061 20.856C111.384 21.9559 111.545 22.923 111.545 23.7573C111.545 24.952 111.346 26.0329 110.948 27C110.568 27.9671 110.056 28.8204 109.412 29.56C108.786 30.3185 108.094 30.9633 107.335 31.4942C106.596 32.0252 105.847 32.4613 105.088 32.8027C104.349 33.144 103.685 33.3905 103.097 33.5422ZM115.533 27L115.049 8.68177H117.353L117.837 27H115.533ZM113.655 6.97511L113.314 5.43911C113.807 5.32533 114.205 5.23052 114.509 5.15466C114.812 5.07881 115.153 4.99348 115.533 4.89866L115.39 5.496C114.897 5.34429 114.423 5.02192 113.968 4.52889C113.532 4.03585 113.314 3.47644 113.314 2.85066C113.314 2.28177 113.447 1.8077 113.712 1.42844C113.997 1.03022 114.357 0.736293 114.793 0.546663C115.248 0.357033 115.732 0.262219 116.244 0.262219C116.452 0.262219 116.67 0.281182 116.898 0.319108C117.144 0.357034 117.372 0.413923 117.581 0.489775L117.353 1.912C117.163 1.87407 116.983 1.83614 116.813 1.79822C116.642 1.76029 116.452 1.74133 116.244 1.74133C115.807 1.74133 115.466 1.83614 115.22 2.02578C114.973 2.19644 114.85 2.44296 114.85 2.76533C114.85 3.16355 114.973 3.50489 115.22 3.78933C115.485 4.07377 115.779 4.30133 116.101 4.472C116.443 4.6237 116.718 4.69955 116.926 4.69955L115.76 4.81333C116.272 4.68059 116.746 4.54785 117.182 4.41511C117.637 4.2634 118.045 4.12118 118.405 3.98844L118.861 5.43911C118.405 5.60978 117.865 5.78992 117.239 5.97955C116.632 6.16918 116.016 6.34933 115.39 6.52C114.765 6.69066 114.186 6.84237 113.655 6.97511Z" fill="white"/>
<path fill-rule="evenodd" clip-rule="evenodd" d="M15.8367 5H0L6.6681 11.6722H22.5049L15.8367 5ZM6.6681 11.6722V27.5185L-8.58307e-06 20.8464V5L6.6681 11.6722Z" fill="#FFCD6C"/>
<path fill-rule="evenodd" clip-rule="evenodd" d="M6.66814 27.5186L22.5049 27.5186L15.8368 20.8464L3.05176e-05 20.8464L6.66814 27.5186ZM15.8368 20.8464L15.8368 5.00003L22.5049 11.6722L22.5049 27.5186L15.8368 20.8464Z" fill="#FFCD6C"/>
<path d="M8.1212 39.9002C7.95595 39.9002 7.81962 39.8465 7.7122 39.7391C7.60478 39.6317 7.55108 39.4953 7.55108 39.3301V33.5916C7.55934 32.9471 7.7122 32.3646 8.00966 31.8441C8.31538 31.3235 8.72438 30.9145 9.23667 30.617C9.74896 30.3196 10.3274 30.1709 10.9718 30.1709C11.6246 30.1709 12.2071 30.3237 12.7194 30.6294C13.24 30.9269 13.649 31.3359 13.9464 31.8565C14.2522 32.3687 14.405 32.9554 14.405 33.6164C14.405 34.2692 14.2604 34.8558 13.9712 35.3764C13.6903 35.8969 13.3061 36.3059 12.8186 36.6034C12.3311 36.9008 11.7816 37.0496 11.1702 37.0496C10.6496 37.0496 10.1786 36.9422 9.75723 36.7273C9.33583 36.5125 8.98053 36.2233 8.69133 35.8597V39.3301C8.69133 39.4953 8.63763 39.6317 8.53021 39.7391C8.43106 39.8465 8.29472 39.9002 8.1212 39.9002ZM10.9718 36.0333C11.4098 36.0333 11.8023 35.93 12.1493 35.7234C12.5046 35.5086 12.7814 35.2194 12.9797 34.8558C13.1863 34.484 13.2895 34.0709 13.2895 33.6164C13.2895 33.1537 13.1863 32.7406 12.9797 32.377C12.7814 32.0052 12.5046 31.716 12.1493 31.5094C11.8023 31.2946 11.4098 31.1872 10.9718 31.1872C10.5339 31.1872 10.1373 31.2946 9.78201 31.5094C9.43498 31.7242 9.16231 32.0134 8.964 32.377C8.7657 32.7406 8.66655 33.1537 8.66655 33.6164C8.66655 34.0709 8.7657 34.484 8.964 34.8558C9.16231 35.2194 9.43498 35.5086 9.78201 35.7234C10.1373 35.93 10.5339 36.0333 10.9718 36.0333ZM16.6245 32.786C16.641 32.282 16.7691 31.8317 17.0087 31.4351C17.2566 31.0384 17.583 30.7245 17.9879 30.4931C18.3927 30.2617 18.8389 30.1461 19.3264 30.1461C19.7809 30.1461 20.1197 30.2163 20.3428 30.3568C20.5741 30.4972 20.6609 30.6749 20.603 30.8897C20.5782 31.0137 20.5287 31.1045 20.4543 31.1624C20.3799 31.212 20.2932 31.2409 20.194 31.2491C20.0949 31.2491 19.9875 31.2409 19.8718 31.2244C19.3677 31.1417 18.9174 31.1541 18.5208 31.2615C18.1242 31.3689 17.8102 31.5549 17.5789 31.8193C17.3475 32.0837 17.2318 32.4059 17.2318 32.786H16.6245ZM16.6617 37C16.4882 37 16.3519 36.9546 16.2527 36.8637C16.1535 36.7645 16.104 36.624 16.104 36.4423V30.7782C16.104 30.6046 16.1535 30.4683 16.2527 30.3692C16.3519 30.27 16.4882 30.2204 16.6617 30.2204C16.8517 30.2204 16.9922 30.27 17.0831 30.3692C17.1823 30.46 17.2318 30.5964 17.2318 30.7782V36.4423C17.2318 36.6158 17.1823 36.7521 17.0831 36.8513C16.9922 36.9504 16.8517 37 16.6617 37ZM24.3779 37.0496C23.7169 37.0496 23.1261 36.905 22.6055 36.6158C22.0933 36.3183 21.6884 35.9135 21.3909 35.4012C21.1017 34.8806 20.9571 34.2857 20.9571 33.6164C20.9571 32.9389 21.1017 32.344 21.3909 31.8317C21.6884 31.3111 22.0933 30.9062 22.6055 30.617C23.1261 30.3196 23.7169 30.1709 24.3779 30.1709C25.0389 30.1709 25.6256 30.3196 26.1379 30.617C26.6584 30.9062 27.0633 31.3111 27.3525 31.8317C27.6499 32.344 27.8028 32.9389 27.8111 33.6164C27.8111 34.2857 27.6623 34.8806 27.3649 35.4012C27.0674 35.9135 26.6625 36.3183 26.1503 36.6158C25.638 36.905 25.0472 37.0496 24.3779 37.0496ZM24.3779 36.0333C24.8324 36.0333 25.2331 35.93 25.5801 35.7234C25.9272 35.5168 26.1998 35.2318 26.3981 34.8682C26.5964 34.5047 26.6956 34.0874 26.6956 33.6164C26.6956 33.1454 26.5964 32.7282 26.3981 32.3646C26.1998 31.9928 25.9272 31.7036 25.5801 31.497C25.2331 31.2905 24.8324 31.1872 24.3779 31.1872C23.9317 31.1872 23.531 31.2905 23.1757 31.497C22.8286 31.7036 22.556 31.9928 22.3577 32.3646C22.1594 32.7282 22.0602 33.1454 22.0602 33.6164C22.0602 34.0874 22.1594 34.5047 22.3577 34.8682C22.556 35.2318 22.8286 35.5168 23.1757 35.7234C23.531 35.93 23.9317 36.0333 24.3779 36.0333Z" fill="#FFCD6C"/>
</svg>
