<svg width="123" height="39" viewBox="0 0 123 39" fill="none" xmlns="http://www.w3.org/2000/svg">
<path d="M37.555 27.0284C37.555 26.5733 37.5929 26.0898 37.6688 25.5778C37.7636 25.0468 37.8963 24.4874 38.067 23.8996C38.2566 23.2927 38.4842 22.6575 38.7497 21.9938L40.7977 22.7902C40.608 23.3212 40.4374 23.8237 40.2857 24.2978C40.1529 24.7719 40.0486 25.2175 39.9728 25.6347C39.9159 26.0519 39.8874 26.4501 39.8874 26.8293C39.8874 27.6258 40.0581 28.299 40.3994 28.8489C40.7597 29.4178 41.2528 29.8824 41.8785 30.2427C42.5043 30.603 43.2154 30.8684 44.0119 31.0391C44.8273 31.2098 45.6901 31.2951 46.6003 31.2951C47.7002 31.2951 48.7242 31.2003 49.6723 31.0107C50.6394 30.821 51.4833 30.5461 52.2039 30.1858C52.9434 29.8444 53.5218 29.4462 53.939 28.9911C54.3562 28.555 54.5648 28.0809 54.5648 27.5689C54.5648 27.3224 54.47 27.0948 54.2803 26.8862C54.0907 26.6776 53.8063 26.4785 53.427 26.2889C53.0477 26.0993 52.5926 25.9191 52.0617 25.7484C51.5307 25.5588 50.9239 25.3692 50.2412 25.1796L50.7817 22.8187C51.7677 23.1979 52.64 23.5203 53.3985 23.7858C54.1571 24.0323 54.8208 24.2314 55.3897 24.3831C55.9585 24.5348 56.4516 24.6486 56.8688 24.7244C57.286 24.7813 57.6368 24.8098 57.9212 24.8098C58.3194 24.8098 58.6039 24.9236 58.7745 25.1511C58.9642 25.3597 59.059 25.6157 59.059 25.9191C59.059 26.2225 58.9263 26.507 58.6608 26.7724C58.3953 27.019 58.054 27.1422 57.6368 27.1422C57.523 27.1422 57.4092 27.1422 57.2954 27.1422C57.1817 27.1422 57.0584 27.1422 56.9257 27.1422C56.8119 27.1422 56.6981 27.1422 56.5843 27.1422C56.6223 27.3129 56.6507 27.4456 56.6697 27.5404C56.6886 27.6542 56.6981 27.7964 56.6981 27.9671C56.6981 28.6687 56.4516 29.3514 55.9585 30.0151C55.4845 30.6788 54.7828 31.2761 53.8537 31.8071C52.9245 32.357 51.7962 32.7932 50.4688 33.1156C49.1603 33.4379 47.6623 33.5991 45.9745 33.5991C44.4765 33.5991 43.0827 33.3526 41.7932 32.8596C40.5227 32.3855 39.4987 31.6649 38.7212 30.6978C37.9437 29.7307 37.555 28.5076 37.555 27.0284ZM48.0225 38.9751C47.6243 38.9751 47.283 38.8329 46.9985 38.5484C46.7331 38.283 46.6003 37.9606 46.6003 37.5813C46.6003 37.2021 46.7331 36.8702 46.9985 36.5858C47.283 36.3013 47.6243 36.1591 48.0225 36.1591C48.4018 36.1591 48.7242 36.3013 48.9897 36.5858C49.2741 36.8702 49.4163 37.2021 49.4163 37.5813C49.4163 37.9606 49.2741 38.283 48.9897 38.5484C48.7242 38.8329 48.4018 38.9751 48.0225 38.9751ZM44.1257 38.9751C43.7274 38.9751 43.3861 38.8329 43.1017 38.5484C42.8362 38.283 42.7034 37.9606 42.7034 37.5813C42.7034 37.2021 42.8362 36.8702 43.1017 36.5858C43.3861 36.3013 43.7274 36.1591 44.1257 36.1591C44.5049 36.1591 44.8273 36.3013 45.0928 36.5858C45.3772 36.8702 45.5194 37.2021 45.5194 37.5813C45.5194 37.9606 45.3772 38.283 45.0928 38.5484C44.8273 38.8329 44.5049 38.9751 44.1257 38.9751ZM57.2194 27.1422L57.5039 24.8098H59.6941C61.268 24.8098 62.4343 24.7244 63.1928 24.5538C63.9513 24.3831 64.4443 24.1556 64.6719 23.8711C64.9184 23.5867 65.0417 23.2927 65.0417 22.9893C65.0417 22.5342 64.871 22.0317 64.5297 21.4818C64.1883 20.9319 63.7522 20.3724 63.2212 19.8036C62.6903 19.2157 62.1214 18.6373 61.5145 18.0684C60.9267 17.4996 60.3673 16.9781 59.8363 16.504C59.3054 16.0299 58.8692 15.6222 58.5279 15.2809C58.1865 14.9206 58.0159 14.6646 58.0159 14.5129C58.0159 14.2284 58.0348 13.9535 58.0728 13.688C58.1297 13.4225 58.196 13.176 58.2719 12.9484C58.3667 12.7209 58.4805 12.5407 58.6132 12.408C58.9925 12.0098 59.514 11.5926 60.1777 11.1564C60.8414 10.7013 61.6094 10.2462 62.4817 9.79111C63.354 9.31703 64.2831 8.84296 65.2692 8.36889C66.2553 7.87585 67.2508 7.38281 68.2559 6.88978L69.223 8.99466C68.3128 9.44978 67.4025 9.90489 66.4923 10.36C65.5821 10.7961 64.7003 11.2323 63.847 11.6684C62.9937 12.1046 62.1877 12.5502 61.4292 13.0053C60.6897 13.4415 60.0165 13.8871 59.4097 14.3422L59.5803 13.3751C60.4337 14.0957 61.2396 14.7879 61.9981 15.4516C62.7566 16.1153 63.4772 16.7979 64.1599 17.4996C64.8425 18.1822 65.4778 18.9218 66.0657 19.7182C66.6535 20.5147 67.2034 21.3964 67.7154 22.3636C68.1137 23.1031 68.5783 23.6436 69.1092 23.9849C69.6402 24.3262 70.1617 24.5538 70.6737 24.6676C71.2046 24.7624 71.6313 24.8098 71.9537 24.8098C72.3519 24.8098 72.6363 24.9236 72.807 25.1511C72.9966 25.3597 73.0914 25.6157 73.0914 25.9191C73.0914 26.2225 72.9587 26.507 72.6932 26.7724C72.4277 27.019 72.0864 27.1422 71.6692 27.1422C71.1572 27.1422 70.5504 27.0664 69.8488 26.9147C69.1661 26.744 68.4929 26.4216 67.8292 25.9476C67.1655 25.4735 66.6156 24.7529 66.1794 23.7858L67.0328 24.1271C66.7483 24.6391 66.4165 25.0847 66.0372 25.464C65.6769 25.8243 65.2123 26.1372 64.6434 26.4027C64.0745 26.6492 63.3824 26.8388 62.567 26.9716C61.7516 27.0853 60.756 27.1422 59.5803 27.1422H57.2194ZM71.2372 27.1422L71.5217 24.8098C72.4698 24.8098 73.2094 24.7434 73.7403 24.6107C74.2713 24.459 74.6695 24.184 74.935 23.7858C75.2194 23.3686 75.447 22.7713 75.6177 21.9938C75.7883 21.2163 75.9969 20.2018 76.2434 18.9502L78.4621 19.3769C78.3863 19.7182 78.3009 20.0975 78.2061 20.5147C78.1113 20.9319 78.026 21.349 77.9501 21.7662C77.8932 22.1644 77.8648 22.5153 77.8648 22.8187C77.8648 23.1031 77.8837 23.3686 77.9217 23.6151C77.9596 23.8616 78.1018 24.0702 78.3483 24.2409C78.5948 24.4116 79.012 24.5538 79.5999 24.6676C80.1877 24.7624 81.0316 24.8098 82.1314 24.8098C82.5297 24.8098 82.8141 24.9236 82.9848 25.1511C83.1744 25.3597 83.2692 25.6157 83.2692 25.9191C83.2692 26.2225 83.1365 26.507 82.871 26.7724C82.6055 27.019 82.2642 27.1422 81.847 27.1422C80.6903 27.1422 79.7706 27.0853 79.0879 26.9716C78.4052 26.8388 77.8837 26.6492 77.5234 26.4027C77.1821 26.1561 76.9356 25.8527 76.7839 25.4924C76.6511 25.1132 76.5468 24.677 76.471 24.184L77.3243 24.2409C77.0209 24.8477 76.6891 25.3407 76.3288 25.72C75.9874 26.0993 75.5892 26.3932 75.1341 26.6018C74.679 26.8104 74.1291 26.9526 73.4843 27.0284C72.8586 27.1043 72.1095 27.1422 71.2372 27.1422ZM78.4052 32.5182C78.007 32.5182 77.6657 32.376 77.3812 32.0916C77.1157 31.8261 76.983 31.5037 76.983 31.1244C76.983 30.7452 77.1157 30.4133 77.3812 30.1289C77.6657 29.8444 78.007 29.7022 78.4052 29.7022C78.7845 29.7022 79.1068 29.8444 79.3723 30.1289C79.6568 30.4133 79.799 30.7452 79.799 31.1244C79.799 31.5037 79.6568 31.8261 79.3723 32.0916C79.1068 32.376 78.7845 32.5182 78.4052 32.5182ZM74.5083 32.5182C74.1101 32.5182 73.7688 32.376 73.4843 32.0916C73.2188 31.8261 73.0861 31.5037 73.0861 31.1244C73.0861 30.7452 73.2188 30.4133 73.4843 30.1289C73.7688 29.8444 74.1101 29.7022 74.5083 29.7022C74.8876 29.7022 75.21 29.8444 75.4754 30.1289C75.7599 30.4133 75.9021 30.7452 75.9021 31.1244C75.9021 31.5037 75.7599 31.8261 75.4754 32.0916C75.21 32.376 74.8876 32.5182 74.5083 32.5182ZM81.4217 27.1422L81.7061 24.8098C82.8249 24.8098 83.6972 24.7719 84.323 24.696C84.9488 24.6012 85.3944 24.3831 85.6599 24.0418C85.9254 23.6815 86.0581 23.1221 86.0581 22.3636C86.0581 21.8895 85.9823 21.3301 85.8306 20.6853C85.6788 20.0216 85.4797 19.32 85.2332 18.5804C84.9867 17.8409 84.7212 17.1108 84.4368 16.3902L86.7408 15.5369C86.9873 16.1437 87.2148 16.8359 87.4234 17.6133C87.651 18.3908 87.8406 19.1588 87.9923 19.9173C88.144 20.6759 88.2199 21.3396 88.2199 21.9084C88.2199 22.8566 88.0871 23.6625 87.8217 24.3262C87.5751 24.9899 87.1769 25.5304 86.627 25.9476C86.0771 26.3647 85.366 26.6681 84.4937 26.8578C83.6403 27.0474 82.6163 27.1422 81.4217 27.1422ZM87.6226 12.5787C87.2243 12.5787 86.883 12.4459 86.5986 12.1804C86.3331 11.896 86.2003 11.5641 86.2003 11.1849C86.2003 10.8056 86.3331 10.4738 86.5986 10.1893C86.883 9.90489 87.2243 9.76267 87.6226 9.76267C88.0018 9.76267 88.3242 9.90489 88.5897 10.1893C88.8741 10.4738 89.0163 10.8056 89.0163 11.1849C89.0163 11.5641 88.8741 11.896 88.5897 12.1804C88.3242 12.4459 88.0018 12.5787 87.6226 12.5787ZM83.7257 12.5787C83.3274 12.5787 82.9861 12.4459 82.7017 12.1804C82.4362 11.896 82.3034 11.5641 82.3034 11.1849C82.3034 10.8056 82.4362 10.4738 82.7017 10.1893C82.9861 9.90489 83.3274 9.76267 83.7257 9.76267C84.1049 9.76267 84.4273 9.90489 84.6928 10.1893C84.9772 10.4738 85.1194 10.8056 85.1194 11.1849C85.1194 11.5641 84.9772 11.896 84.6928 12.1804C84.4273 12.4459 84.1049 12.5787 83.7257 12.5787ZM100.019 27L99.4497 6.69066H101.754L102.323 27H100.019ZM103.144 33.5422L102.319 31.3804C104.235 30.7736 105.704 30.0436 106.728 29.1902C107.771 28.3559 108.482 27.4836 108.862 26.5733C109.26 25.6631 109.459 24.7908 109.459 23.9564C109.459 23.4255 109.402 22.9135 109.288 22.4204C109.175 21.9274 108.975 21.368 108.691 20.7422C108.407 20.1164 108.008 19.339 107.496 18.4098L109.573 17.3573C110.293 18.5899 110.805 19.7561 111.109 20.856C111.431 21.9559 111.592 22.923 111.592 23.7573C111.592 24.952 111.393 26.0329 110.995 27C110.616 27.9671 110.104 28.8204 109.459 29.56C108.833 30.3185 108.141 30.9633 107.383 31.4942C106.643 32.0252 105.894 32.4613 105.135 32.8027C104.396 33.144 103.732 33.3905 103.144 33.5422ZM115.58 27L115.096 8.68177H117.4L117.884 27H115.58ZM113.703 6.97511L113.361 5.43911C113.854 5.32533 114.252 5.23052 114.556 5.15466C114.859 5.07881 115.201 4.99348 115.58 4.89866L115.438 5.496C114.945 5.34429 114.471 5.02192 114.015 4.52889C113.579 4.03585 113.361 3.47644 113.361 2.85066C113.361 2.28177 113.494 1.8077 113.759 1.42844C114.044 1.03022 114.404 0.736293 114.84 0.546663C115.295 0.357033 115.779 0.262219 116.291 0.262219C116.5 0.262219 116.718 0.281182 116.945 0.319108C117.192 0.357034 117.419 0.413923 117.628 0.489775L117.4 1.912C117.211 1.87407 117.031 1.83614 116.86 1.79822C116.689 1.76029 116.5 1.74133 116.291 1.74133C115.855 1.74133 115.514 1.83614 115.267 2.02578C115.02 2.19644 114.897 2.44296 114.897 2.76533C114.897 3.16355 115.02 3.50489 115.267 3.78933C115.532 4.07377 115.826 4.30133 116.149 4.472C116.49 4.6237 116.765 4.69955 116.974 4.69955L115.807 4.81333C116.319 4.68059 116.794 4.54785 117.23 4.41511C117.685 4.2634 118.092 4.12118 118.453 3.98844L118.908 5.43911C118.453 5.60978 117.912 5.78992 117.287 5.97955C116.68 6.16918 116.063 6.34933 115.438 6.52C114.812 6.69066 114.234 6.84237 113.703 6.97511Z" fill="white"/>
<path fill-rule="evenodd" clip-rule="evenodd" d="M15.8464 4.96289H8.58307e-06L6.67216 11.635H22.5185L15.8464 4.96289ZM6.67215 11.635V27.4814L0 20.8093V4.96289L6.67215 11.635Z" fill="white"/>
<path fill-rule="evenodd" clip-rule="evenodd" d="M6.67218 27.4814L22.5185 27.4814L15.8464 20.8093L2.28882e-05 20.8093L6.67218 27.4814ZM15.8464 20.8093L15.8464 4.96292L22.5186 11.6351L22.5186 27.4814L15.8464 20.8093Z" fill="white"/>
</svg>
