<svg width="31" height="35" viewBox="0 0 31 35" fill="none" xmlns="http://www.w3.org/2000/svg">
<path d="M28.48 0.101195L9.10686 6.56085C8.7136 6.70033 8.36999 6.97779 8.12597 7.35289C7.88195 7.72799 7.75025 8.1812 7.75 8.64661V26.5175C7.11556 26.3436 6.46535 26.2537 5.8125 26.2495C2.60352 26.2495 0 28.2088 0 30.6247C0 33.0407 2.60352 35 5.8125 35C9.02148 35 11.625 33.0407 11.625 30.6247V14.6496L27.125 9.52235V22.1429C26.4906 21.9684 25.8404 21.8783 25.1875 21.8742C21.9785 21.8742 19.375 23.8335 19.375 26.2495C19.375 28.6655 21.9785 30.6247 25.1875 30.6247C28.3965 30.6247 31 28.6661 31 26.2495V2.18559C30.9997 1.84216 30.9278 1.50363 30.7901 1.1974C30.6525 0.891168 30.4529 0.625837 30.2075 0.422881C29.9621 0.219924 29.6779 0.0850452 29.3778 0.0291593C29.0777 -0.0267265 28.7701 -0.0020489 28.48 0.101195Z" fill="#203354"/>
</svg>
