<svg width="100" height="100" viewBox="0 0 100 100" fill="none" xmlns="http://www.w3.org/2000/svg">
<g clip-path="url(#clip0_834_495)">
<path d="M39.1754 56C38.3831 56 37.8548 55.5223 37.5907 54.5669L32 35.4387C32.1614 35.3217 32.3742 35.2242 32.6383 35.1462C32.9171 35.0487 33.1739 35 33.4087 35C34.6706 35 35.4777 35.6727 35.8298 37.0181L38.9994 48.8343L38.4491 50.8231L38.7132 50.9694L42.499 37.0181C42.8806 35.6727 43.6876 35 44.9202 35C45.155 35 45.4044 35.0487 45.6686 35.1462C45.9474 35.2242 46.1675 35.3217 46.3289 35.4387L40.7602 54.5669C40.4961 55.5223 39.9678 56 39.1754 56Z" fill="#F9B0B0"/>
<path d="M48.7435 38.1295C48.7435 37.1546 49.0223 36.3942 49.5799 35.8482C50.1522 35.2827 50.9519 35 51.9791 35V52.8705C51.9791 53.8649 51.6929 54.6351 51.1206 55.1811C50.563 55.727 49.7707 56 48.7435 56V38.1295Z" fill="#F9B0B0"/>
<path d="M54.8377 37.2228C54.8377 36.6574 54.9918 36.1894 55.2999 35.8189C55.6227 35.4485 56.0116 35.2632 56.4665 35.2632H62.4753C63.5612 35.2632 64.5223 35.5557 65.3587 36.1407C66.1951 36.7061 66.8408 37.5056 67.2957 38.539C67.7652 39.5724 68 40.7716 68 42.1365C68 43.5209 67.7726 44.7396 67.3177 45.7925C66.8628 46.8259 66.2171 47.6253 65.3807 48.1908C64.559 48.7563 63.5905 49.039 62.4753 49.039H58.0732V52.8997C58.0732 53.9137 57.7944 54.6838 57.2368 55.2103C56.6939 55.7368 55.8942 56 54.8377 56V37.2228ZM62.4753 45.3245C63.209 45.3245 63.774 45.0515 64.1702 44.5056C64.5663 43.9401 64.7644 43.1407 64.7644 42.1072C64.7644 41.1128 64.5663 40.3426 64.1702 39.7967C63.774 39.2507 63.209 38.9777 62.4753 38.9777H58.0732V45.3245H62.4753Z" fill="#F9B0B0"/>
<path d="M84.2606 64.8325L87.5393 61.3682C88.1058 60.7697 89.1124 61.0748 89.2513 61.887L94.1953 90.791C94.384 91.894 93.3535 92.2087 92.9985 91.1476C90.6821 84.2245 88.2123 73.7808 84.1044 66.0038C83.9013 65.6192 83.9616 65.1484 84.2606 64.8325Z" fill="#FF7F50"/>
<path d="M55.171 76.8909L58.4143 78.62C58.6864 78.765 58.8763 79.0274 58.9291 79.3311L62.1643 97.9356C62.277 98.5836 61.8652 98.8536 61.5463 98.2783C59.8529 95.2232 57.0138 85.3909 53.676 78.376C53.2407 77.4613 54.2771 76.4144 55.171 76.8909Z" fill="#FF7F50"/>
<path d="M43.829 76.8909L40.5857 78.62C40.3136 78.765 40.1237 79.0274 40.0709 79.3311L36.8357 97.9356C36.723 98.5836 37.1348 98.8536 37.4537 98.2783C39.1471 95.2232 41.9862 85.3909 45.324 78.376C45.7593 77.4613 44.7229 76.4144 43.829 76.8909Z" fill="#FF7F50"/>
<path d="M16.3989 63.8325L13.1202 60.3682C12.5538 59.7697 11.5472 60.0748 11.4082 60.887L6.4642 89.791C6.27554 90.894 7.30601 91.2087 7.66106 90.1476C9.97745 83.2245 12.4473 72.7808 16.5551 65.0038C16.7583 64.6192 16.6979 64.1484 16.3989 63.8325Z" fill="#FF7F50"/>
<path fill-rule="evenodd" clip-rule="evenodd" d="M54.7309 3.83236C53.1887 -0.676868 46.8113 -0.676866 45.269 3.83236L37.6858 26.0041C36.994 28.0269 35.0927 29.3861 32.9549 29.3861H8.98282C4.07734 29.3861 2.1054 35.7145 6.1426 38.501L25.0877 51.5773C26.9307 52.8493 27.7031 55.1916 26.9785 57.3103L19.6392 78.7687C18.079 83.3305 23.2425 87.2405 27.2104 84.5018L47.1598 70.7325C48.8694 69.5524 51.1306 69.5524 52.8402 70.7325L72.7896 84.5018C76.7574 87.2405 81.921 83.3305 80.3607 78.7687L73.0215 57.3103C72.2968 55.1915 73.0693 52.8493 74.9122 51.5773L93.8574 38.501C97.8946 35.7145 95.9226 29.3861 91.0171 29.3861H67.0451C64.9073 29.3861 63.006 28.0269 62.3141 26.0041L54.7309 3.83236ZM39.1754 56C38.383 56 37.8548 55.5223 37.5907 54.5669L32 35.4388C32.1614 35.3218 32.3742 35.2243 32.6383 35.1463C32.9171 35.0488 33.1739 35 33.4087 35C34.6706 35 35.4777 35.6727 35.8298 37.0181L38.9993 48.8343L38.4491 50.8232L38.7132 50.9694L42.499 37.0181C42.8805 35.6727 43.6876 35 44.9202 35C45.155 35 45.4044 35.0488 45.6685 35.1463C45.9473 35.2243 46.1675 35.3218 46.3289 35.4388L40.7602 54.5669C40.4961 55.5223 39.9678 56 39.1754 56ZM48.7435 38.1296C48.7435 37.1546 49.0223 36.3942 49.5799 35.8482C50.1522 35.2828 50.9519 35 51.979 35V52.8705C51.979 53.8649 51.6929 54.6351 51.1206 55.1811C50.563 55.7271 49.7706 56 48.7435 56V38.1296ZM55.2999 35.819C54.9917 36.1894 54.8377 36.6574 54.8377 37.2229V56C55.8942 56 56.6939 55.7368 57.2368 55.2103C57.7944 54.6839 58.0732 53.9137 58.0732 52.8998V49.039H62.4753C63.5905 49.039 64.559 48.7563 65.3807 48.1908C66.2171 47.6254 66.8628 46.8259 67.3177 45.7925C67.7725 44.7396 68 43.5209 68 42.1365C68 40.7716 67.7652 39.5725 67.2956 38.539C66.8408 37.5056 66.1951 36.7062 65.3587 36.1407C64.5223 35.5557 63.5612 35.2633 62.4753 35.2633H56.4664C56.0116 35.2633 55.6227 35.4485 55.2999 35.819ZM64.1701 44.5056C63.774 45.0516 63.209 45.3245 62.4753 45.3245H58.0732V38.9777H62.4753C63.209 38.9777 63.774 39.2507 64.1701 39.7967C64.5663 40.3427 64.7644 41.1128 64.7644 42.1073C64.7644 43.1407 64.5663 43.9401 64.1701 44.5056Z" fill="#FF7F50"/>
</g>
<defs>
<clipPath id="clip0_834_495">
<rect width="100" height="100" fill="white"/>
</clipPath>
</defs>
</svg>
