<svg width="100" height="100" viewBox="0 0 100 100" fill="none" xmlns="http://www.w3.org/2000/svg">
<g clip-path="url(#clip0_834_469)">
<path d="M40.307 61.0188L19.5637 40.4176L12.5 47.3835L40.307 75L100 15.7159L92.9861 8.75L40.307 61.0188Z" fill="#FF7F50"/>
<path fill-rule="evenodd" clip-rule="evenodd" d="M0 50C0 22.4 22.4 0 50 0C62.8189 0 74.5162 4.83208 83.3683 12.773L76.2473 19.8092C69.2239 13.6987 60.0459 10 50 10C27.9 10 10 27.9 10 50C10 72.1 27.9 90 50 90C72.1 90 90 72.1 90 50C90 44.3912 88.8471 39.0529 86.7651 34.2091L94.309 26.8224C97.9435 33.7519 100 41.6373 100 50C100 77.6 77.6 100 50 100C22.4 100 0 77.6 0 50Z" fill="#FF7F50"/>
</g>
<defs>
<clipPath id="clip0_834_469">
<rect width="100" height="100" fill="white"/>
</clipPath>
</defs>
</svg>
