<svg width="50" height="50" viewBox="0 0 50 50" fill="none" xmlns="http://www.w3.org/2000/svg">
<path d="M26.4177 40.9434C25.8451 41.1585 25.3497 41.25 25 41.25C24.6441 41.25 24.1472 41.1583 23.5767 40.9447C23.4291 40.8894 23.3212 40.8368 23.2435 40.7921C23.3255 40.7176 23.4484 40.6279 23.6255 40.54C23.9587 40.3745 24.4259 40.2475 25 40.2475C25.5747 40.2475 26.0416 40.3744 26.3742 40.5394C26.5499 40.6265 26.6717 40.7153 26.7533 40.789C26.6752 40.8342 26.5666 40.8874 26.4177 40.9434ZM36 19.5688V28.5897C36 30.0555 36.6498 31.4459 37.7743 32.3862L38.1633 32.7115C38.6821 33.1454 38.6602 33.9498 38.1184 34.3547C37.9372 34.4901 37.7172 34.5633 37.4911 34.5633H12.5089C12.2828 34.5633 12.0628 34.4901 11.8816 34.3547C11.3398 33.9498 11.3179 33.1454 11.8367 32.7115L12.2257 32.3862C13.3502 31.4459 14 30.0555 14 28.5897V19.5688C14 13.7375 17.0507 9.22084 22.1515 7.99487C24.4143 7.63999 25.6214 7.69674 27.8659 7.99914C32.9369 9.23178 36 13.7672 36 19.5688Z" fill="white" stroke="#203354" stroke-width="3.5"/>
</svg>
