<svg width="13" height="12" viewBox="0 0 13 12" fill="none" xmlns="http://www.w3.org/2000/svg">
<path d="M12.6293 8.47963L9.78546 7.35461C9.66398 7.30681 9.52896 7.29674 9.40074 7.32591C9.27252 7.35508 9.15803 7.4219 9.07451 7.51633L7.81512 8.93666C5.83861 8.07645 4.24798 6.60817 3.31607 4.7837L4.85477 3.62118C4.95727 3.54423 5.02982 3.43855 5.06143 3.32013C5.09304 3.20172 5.082 3.07702 5.02997 2.96492L3.8112 0.339872C3.7541 0.219028 3.65311 0.120363 3.52564 0.0608898C3.39817 0.00141686 3.25222 -0.0151363 3.11294 0.0140846L0.472274 0.576595C0.337998 0.605217 0.218197 0.675005 0.132423 0.774571C0.0466498 0.874136 -3.09317e-05 0.997599 1.53774e-08 1.12481C1.53774e-08 7.13663 5.2788 12 11.7815 12C11.9193 12.0001 12.0531 11.957 12.161 11.8778C12.2689 11.7987 12.3446 11.688 12.3756 11.5641L12.985 9.12651C13.0164 8.99733 12.9981 8.86206 12.9332 8.74399C12.8683 8.62593 12.7608 8.53244 12.6293 8.47963V8.47963Z" fill="white"/>
</svg>
