<svg width="23" height="15" viewBox="0 0 23 15" fill="none" xmlns="http://www.w3.org/2000/svg">
<path d="M0 13V5C0 3.89543 0.89543 3 2 3H21C22.1046 3 23 3.89543 23 5V11.64V13C23 14.1046 22.1046 15 21 15H5H2C0.895431 15 0 14.1046 0 13Z" fill="#FFB459"/>
<path d="M2.1212 13.9002C1.95595 13.9002 1.81962 13.8465 1.7122 13.7391C1.60478 13.6317 1.55108 13.4953 1.55108 13.3301V7.59162C1.55934 6.94713 1.7122 6.36461 2.00966 5.84406C2.31538 5.3235 2.72438 4.9145 3.23667 4.61704C3.74896 4.31958 4.32735 4.17085 4.97185 4.17085C5.6246 4.17085 6.20712 4.32371 6.71941 4.62944C7.23997 4.92689 7.64897 5.3359 7.94643 5.85645C8.25215 6.36874 8.40501 6.95539 8.40501 7.61641C8.40501 8.26917 8.26041 8.85582 7.97122 9.37637C7.69028 9.89693 7.30607 10.3059 6.81857 10.6034C6.33107 10.9008 5.78159 11.0496 5.17015 11.0496C4.6496 11.0496 4.17862 10.9422 3.75723 10.7273C3.33583 10.5125 2.98053 10.2233 2.69133 9.85974V13.3301C2.69133 13.4953 2.63763 13.6317 2.53021 13.7391C2.43106 13.8465 2.29472 13.9002 2.1212 13.9002ZM4.97185 10.0333C5.40977 10.0333 5.80225 9.92998 6.14929 9.72341C6.50458 9.50858 6.78138 9.21938 6.97969 8.85582C7.18626 8.484 7.28954 8.07086 7.28954 7.61641C7.28954 7.1537 7.18626 6.74056 6.97969 6.377C6.78138 6.00518 6.50458 5.71598 6.14929 5.50942C5.80225 5.29459 5.40977 5.18717 4.97185 5.18717C4.53392 5.18717 4.13731 5.29459 3.78201 5.50942C3.43498 5.72425 3.16231 6.01344 2.964 6.377C2.7657 6.74056 2.66655 7.1537 2.66655 7.61641C2.66655 8.07086 2.7657 8.484 2.964 8.85582C3.16231 9.21938 3.43498 9.50858 3.78201 9.72341C4.13731 9.92998 4.53392 10.0333 4.97185 10.0333ZM10.6245 6.78601C10.641 6.28198 10.7691 5.83166 11.0087 5.43505C11.2566 5.03844 11.583 4.72446 11.9879 4.4931C12.3927 4.26174 12.8389 4.14607 13.3264 4.14607C13.7809 4.14607 14.1197 4.2163 14.3428 4.35677C14.5741 4.49723 14.6609 4.67488 14.603 4.88971C14.5782 5.01365 14.5287 5.10454 14.4543 5.16238C14.3799 5.21196 14.2932 5.24088 14.194 5.24914C14.0949 5.24914 13.9875 5.24088 13.8718 5.22435C13.3677 5.14172 12.9174 5.15412 12.5208 5.26153C12.1242 5.36895 11.8102 5.55486 11.5789 5.81927C11.3475 6.08368 11.2318 6.40592 11.2318 6.78601H10.6245ZM10.6617 11C10.4882 11 10.3519 10.9546 10.2527 10.8637C10.1535 10.7645 10.104 10.624 10.104 10.4423V4.77816C10.104 4.60465 10.1535 4.46831 10.2527 4.36916C10.3519 4.27001 10.4882 4.22043 10.6617 4.22043C10.8517 4.22043 10.9922 4.27001 11.0831 4.36916C11.1823 4.46005 11.2318 4.59638 11.2318 4.77816V10.4423C11.2318 10.6158 11.1823 10.7521 11.0831 10.8513C10.9922 10.9504 10.8517 11 10.6617 11ZM18.3779 11.0496C17.7169 11.0496 17.1261 10.905 16.6055 10.6158C16.0933 10.3183 15.6884 9.91345 15.3909 9.40116C15.1017 8.88061 14.9571 8.28569 14.9571 7.61641C14.9571 6.93887 15.1017 6.34395 15.3909 5.83166C15.6884 5.31111 16.0933 4.90624 16.6055 4.61704C17.1261 4.31958 17.7169 4.17085 18.3779 4.17085C19.0389 4.17085 19.6256 4.31958 20.1379 4.61704C20.6584 4.90624 21.0633 5.31111 21.3525 5.83166C21.6499 6.34395 21.8028 6.93887 21.8111 7.61641C21.8111 8.28569 21.6623 8.88061 21.3649 9.40116C21.0674 9.91345 20.6625 10.3183 20.1503 10.6158C19.638 10.905 19.0472 11.0496 18.3779 11.0496ZM18.3779 10.0333C18.8324 10.0333 19.2331 9.92998 19.5801 9.72341C19.9272 9.51684 20.1998 9.23178 20.3981 8.86822C20.5964 8.50466 20.6956 8.08739 20.6956 7.61641C20.6956 7.14544 20.5964 6.72817 20.3981 6.36461C20.1998 5.99279 19.9272 5.70359 19.5801 5.49702C19.2331 5.29045 18.8324 5.18717 18.3779 5.18717C17.9317 5.18717 17.531 5.29045 17.1757 5.49702C16.8286 5.70359 16.556 5.99279 16.3577 6.36461C16.1594 6.72817 16.0602 7.14544 16.0602 7.61641C16.0602 8.08739 16.1594 8.50466 16.3577 8.86822C16.556 9.23178 16.8286 9.51684 17.1757 9.72341C17.531 9.92998 17.9317 10.0333 18.3779 10.0333Z" fill="white"/>
<rect x="4" y="12" width="18" height="1" rx="0.5" fill="white"/>
</svg>
