<svg width="19" height="10" viewBox="0 0 21 14" fill="none" xmlns="http://www.w3.org/2000/svg">
<path d="M20.8731 6.46771C18.896 2.61005 14.9818 0 10.5 0C6.01816 0 2.1029 2.61188 0.126855 6.46807C0.0434537 6.63305 0 6.81532 0 7.00018C0 7.18504 0.0434537 7.36731 0.126855 7.53229C2.10399 11.3899 6.01816 14 10.5 14C14.9818 14 18.8971 11.3881 20.8731 7.53193C20.9565 7.36695 21 7.18468 21 6.99982C21 6.81496 20.9565 6.63269 20.8731 6.46771V6.46771ZM10.5 12.25C9.46163 12.25 8.44659 11.9421 7.58324 11.3652C6.71988 10.7883 6.04697 9.9684 5.64961 9.00909C5.25225 8.04978 5.14828 6.99418 5.35086 5.97578C5.55343 4.95738 6.05344 4.02191 6.78767 3.28769C7.52189 2.55346 8.45735 2.05345 9.47576 1.85088C10.4942 1.6483 11.5498 1.75227 12.5091 2.14963C13.4684 2.54699 14.2883 3.2199 14.8652 4.08326C15.4421 4.94661 15.75 5.96165 15.75 7C15.7503 7.68953 15.6147 8.37237 15.351 9.00948C15.0873 9.6466 14.7006 10.2255 14.213 10.7131C13.7255 11.2006 13.1466 11.5873 12.5095 11.8511C11.8724 12.1148 11.1895 12.2503 10.5 12.25V12.25ZM10.5 3.5C10.1876 3.50437 9.8772 3.55084 9.57722 3.63818C9.82449 3.9742 9.94314 4.38772 9.91167 4.80373C9.8802 5.21974 9.70069 5.6107 9.40568 5.9057C9.11068 6.20071 8.71972 6.38022 8.30371 6.41169C7.8877 6.44316 7.47418 6.32451 7.13816 6.07724C6.94681 6.78219 6.98135 7.5294 7.23692 8.2137C7.49248 8.89799 7.9562 9.48492 8.56281 9.89186C9.16941 10.2988 9.88836 10.5053 10.6185 10.4822C11.3486 10.4591 12.053 10.2077 12.6327 9.76329C13.2125 9.31887 13.6382 8.70385 13.8501 8.00479C14.0619 7.30573 14.0492 6.55783 13.8138 5.86635C13.5783 5.17488 13.132 4.57466 12.5375 4.15016C11.943 3.72567 11.2304 3.49828 10.5 3.5V3.5Z" fill="white"/>
</svg>
