<svg width="256" height="256" viewBox="0 0 256 256" fill="none" xmlns="http://www.w3.org/2000/svg">
<circle cx="128" cy="128" r="128" fill="#203354"/>
<path d="M180.121 77.1213L195.379 92.3787C196.55 93.5503 196.55 95.4497 195.379 96.6213L112.632 179.368C111.456 180.544 109.557 180.548 108.387 179.367C90.9479 161.766 59.9811 130.603 59.0228 130.005C59.0077 130.011 59 130.01 59 130C59 129.994 59.0076 129.996 59.0228 130.005C59.5664 129.785 69.7199 119.483 76.3794 112.672C77.5481 111.476 79.4663 111.466 80.6483 112.648L108.379 140.379C109.55 141.55 111.45 141.55 112.621 140.379L175.879 77.1213C177.05 75.9497 178.95 75.9497 180.121 77.1213Z" fill="white"/>
</svg>
