<svg width="50" height="50" viewBox="0 0 50 50" fill="none" xmlns="http://www.w3.org/2000/svg">
<path d="M17.6294 18.4392L30.5901 5.47852L33.5261 8.41454C32.6587 9.43395 32.2095 10.7688 32.1747 12.0713C32.1359 13.5236 32.6093 15.0967 33.8021 16.2895C34.9949 17.4823 36.568 17.9557 38.0202 17.9169C39.3228 17.8821 40.6576 17.4329 41.677 16.5654L44.6131 19.5015L31.6524 32.4622L19.4666 44.648L16.5305 41.7119C17.398 40.6925 17.8472 39.3576 17.882 38.0551C17.9208 36.6029 17.4474 35.0298 16.2546 33.837C15.0618 32.6442 13.4887 32.1708 12.0365 32.2096C10.7339 32.2443 9.39905 32.6936 8.37965 33.561L5.44362 30.625L17.6294 18.4392Z" fill="white" stroke="#203354" stroke-width="3.5"/>
<rect x="15.6426" y="25.1008" width="2.82805" height="2.82805" transform="rotate(-45 15.6426 25.1008)" fill="#203354"/>
<rect x="19.291" y="28.7502" width="2.82805" height="2.82805" transform="rotate(-45 19.291 28.7502)" fill="#203354"/>
<rect x="22.9395" y="32.3999" width="2.82805" height="2.82805" transform="rotate(-45 22.9395 32.3999)" fill="#203354"/>
</svg>
