<svg width="18" height="16" viewBox="0 0 18 16" fill="none" xmlns="http://www.w3.org/2000/svg">
<path d="M8.92498 0C4.39514 0 0.724976 3.58065 0.724976 8C0.724976 12.4194 4.39514 16 8.92498 16C13.4548 16 17.125 12.4194 17.125 8C17.125 3.58065 13.4548 0 8.92498 0ZM10.813 11.2935L7.89667 9.22581C7.79417 9.15161 7.73465 9.03548 7.73465 8.9129V3.48387C7.73465 3.27097 7.9132 3.09677 8.13143 3.09677H9.71852C9.93675 3.09677 10.1153 3.27097 10.1153 3.48387V7.92581L12.2149 9.41613C12.3934 9.54193 12.4298 9.78387 12.3009 9.95807L11.3684 11.2097C11.2395 11.3806 10.9915 11.4194 10.813 11.2935Z" fill="#888888"/>
</svg>
