<svg width="34" height="28" viewBox="0 0 34 28" fill="none" xmlns="http://www.w3.org/2000/svg">
<path d="M32.8004 22.3711H20.0555C20.0166 23.3936 19.2823 24.0228 18.3346 24.0228H15.1386C14.1562 24.0228 13.403 23.1211 13.4161 22.3711H0.841036C0.378466 22.3711 0 22.7428 0 23.197V24.0228C0 25.8396 1.51386 27.326 3.36414 27.326H30.2773C32.1276 27.326 33.6414 25.8396 33.6414 24.0228V23.197C33.6414 22.7428 33.263 22.3711 32.8004 22.3711ZM30.2773 3.37735C30.2773 2.01475 29.1419 0.899902 27.7542 0.899902H5.88725C4.49954 0.899902 3.36414 2.01475 3.36414 3.37735V20.7195H30.2773V3.37735ZM26.9131 17.4162H6.72829V4.20317H26.9131V17.4162Z" fill="#203354"/>
</svg>
