<svg width="123" height="39" viewBox="0 0 123 39" fill="none" xmlns="http://www.w3.org/2000/svg">
<path d="M37.5547 27.0284C37.5547 26.5733 37.5927 26.0898 37.6685 25.5778C37.7633 25.0468 37.8961 24.4874 38.0667 23.8996C38.2564 23.2927 38.4839 22.6575 38.7494 21.9938L40.7974 22.7902C40.6078 23.3212 40.4371 23.8237 40.2854 24.2978C40.1527 24.7719 40.0484 25.2175 39.9725 25.6347C39.9156 26.0519 39.8872 26.4501 39.8872 26.8293C39.8872 27.6258 40.0579 28.299 40.3992 28.8489C40.7595 29.4178 41.2525 29.8824 41.8783 30.2427C42.5041 30.603 43.2152 30.8684 44.0116 31.0391C44.827 31.2098 45.6899 31.2951 46.6001 31.2951C47.6999 31.2951 48.7239 31.2003 49.6721 31.0107C50.6392 30.821 51.483 30.5461 52.2036 30.1858C52.9432 29.8444 53.5216 29.4462 53.9387 28.9911C54.3559 28.555 54.5645 28.0809 54.5645 27.5689C54.5645 27.3224 54.4697 27.0948 54.2801 26.8862C54.0905 26.6776 53.806 26.4785 53.4267 26.2889C53.0475 26.0993 52.5924 25.9191 52.0614 25.7484C51.5305 25.5588 50.9236 25.3692 50.241 25.1796L50.7814 22.8187C51.7675 23.1979 52.6398 23.5203 53.3983 23.7858C54.1568 24.0323 54.8205 24.2314 55.3894 24.3831C55.9583 24.5348 56.4513 24.6486 56.8685 24.7244C57.2857 24.7813 57.6365 24.8098 57.921 24.8098C58.3192 24.8098 58.6036 24.9236 58.7743 25.1511C58.9639 25.3597 59.0587 25.6157 59.0587 25.9191C59.0587 26.2225 58.926 26.507 58.6605 26.7724C58.395 27.019 58.0537 27.1422 57.6365 27.1422C57.5227 27.1422 57.409 27.1422 57.2952 27.1422C57.1814 27.1422 57.0582 27.1422 56.9254 27.1422C56.8116 27.1422 56.6979 27.1422 56.5841 27.1422C56.622 27.3129 56.6505 27.4456 56.6694 27.5404C56.6884 27.6542 56.6979 27.7964 56.6979 27.9671C56.6979 28.6687 56.4513 29.3514 55.9583 30.0151C55.4842 30.6788 54.7826 31.2761 53.8534 31.8071C52.9242 32.357 51.7959 32.7932 50.4685 33.1156C49.1601 33.4379 47.662 33.5991 45.9743 33.5991C44.4762 33.5991 43.0824 33.3526 41.793 32.8596C40.5224 32.3855 39.4984 31.6649 38.721 30.6978C37.9435 29.7307 37.5547 28.5076 37.5547 27.0284ZM48.0223 38.9751C47.6241 38.9751 47.2827 38.8329 46.9983 38.5484C46.7328 38.283 46.6001 37.9606 46.6001 37.5813C46.6001 37.2021 46.7328 36.8702 46.9983 36.5858C47.2827 36.3013 47.6241 36.1591 48.0223 36.1591C48.4016 36.1591 48.7239 36.3013 48.9894 36.5858C49.2739 36.8702 49.4161 37.2021 49.4161 37.5813C49.4161 37.9606 49.2739 38.283 48.9894 38.5484C48.7239 38.8329 48.4016 38.9751 48.0223 38.9751ZM44.1254 38.9751C43.7272 38.9751 43.3859 38.8329 43.1014 38.5484C42.8359 38.283 42.7032 37.9606 42.7032 37.5813C42.7032 37.2021 42.8359 36.8702 43.1014 36.5858C43.3859 36.3013 43.7272 36.1591 44.1254 36.1591C44.5047 36.1591 44.827 36.3013 45.0925 36.5858C45.377 36.8702 45.5192 37.2021 45.5192 37.5813C45.5192 37.9606 45.377 38.283 45.0925 38.5484C44.827 38.8329 44.5047 38.9751 44.1254 38.9751ZM57.2192 27.1422L57.5036 24.8098H59.6939C61.2678 24.8098 62.434 24.7244 63.1925 24.5538C63.951 24.3831 64.4441 24.1556 64.6716 23.8711C64.9182 23.5867 65.0414 23.2927 65.0414 22.9893C65.0414 22.5342 64.8707 22.0317 64.5294 21.4818C64.1881 20.9319 63.7519 20.3724 63.221 19.8036C62.69 19.2157 62.1211 18.6373 61.5143 18.0684C60.9265 17.4996 60.367 16.9781 59.8361 16.504C59.3051 16.0299 58.869 15.6222 58.5276 15.2809C58.1863 14.9206 58.0156 14.6646 58.0156 14.5129C58.0156 14.2284 58.0346 13.9535 58.0725 13.688C58.1294 13.4225 58.1958 13.176 58.2716 12.9484C58.3665 12.7209 58.4802 12.5407 58.613 12.408C58.9922 12.0098 59.5137 11.5926 60.1774 11.1564C60.8411 10.7013 61.6091 10.2462 62.4814 9.79111C63.3537 9.31703 64.2829 8.84296 65.269 8.36889C66.255 7.87585 67.2506 7.38281 68.2556 6.88978L69.2227 8.99466C68.3125 9.44978 67.4023 9.90489 66.4921 10.36C65.5819 10.7961 64.7001 11.2323 63.8467 11.6684C62.9934 12.1046 62.1875 12.5502 61.429 13.0053C60.6894 13.4415 60.0162 13.8871 59.4094 14.3422L59.5801 13.3751C60.4334 14.0957 61.2393 14.7879 61.9979 15.4516C62.7564 16.1153 63.477 16.7979 64.1596 17.4996C64.8423 18.1822 65.4776 18.9218 66.0654 19.7182C66.6533 20.5147 67.2032 21.3964 67.7152 22.3636C68.1134 23.1031 68.578 23.6436 69.109 23.9849C69.6399 24.3262 70.1614 24.5538 70.6734 24.6676C71.2044 24.7624 71.631 24.8098 71.9534 24.8098C72.3516 24.8098 72.6361 24.9236 72.8068 25.1511C72.9964 25.3597 73.0912 25.6157 73.0912 25.9191C73.0912 26.2225 72.9585 26.507 72.693 26.7724C72.4275 27.019 72.0862 27.1422 71.669 27.1422C71.157 27.1422 70.5502 27.0664 69.8485 26.9147C69.1659 26.744 68.4927 26.4216 67.829 25.9476C67.1653 25.4735 66.6153 24.7529 66.1792 23.7858L67.0325 24.1271C66.7481 24.6391 66.4162 25.0847 66.037 25.464C65.6767 25.8243 65.2121 26.1372 64.6432 26.4027C64.0743 26.6492 63.3822 26.8388 62.5667 26.9716C61.7513 27.0853 60.7558 27.1422 59.5801 27.1422H57.2192ZM71.237 27.1422L71.5214 24.8098C72.4696 24.8098 73.2091 24.7434 73.7401 24.6107C74.271 24.459 74.6693 24.184 74.9348 23.7858C75.2192 23.3686 75.4468 22.7713 75.6174 21.9938C75.7881 21.2163 75.9967 20.2018 76.2432 18.9502L78.4619 19.3769C78.386 19.7182 78.3007 20.0975 78.2059 20.5147C78.111 20.9319 78.0257 21.349 77.9499 21.7662C77.893 22.1644 77.8645 22.5153 77.8645 22.8187C77.8645 23.1031 77.8835 23.3686 77.9214 23.6151C77.9593 23.8616 78.1016 24.0702 78.3481 24.2409C78.5946 24.4116 79.0118 24.5538 79.5996 24.6676C80.1875 24.7624 81.0313 24.8098 82.1312 24.8098C82.5294 24.8098 82.8139 24.9236 82.9845 25.1511C83.1742 25.3597 83.269 25.6157 83.269 25.9191C83.269 26.2225 83.1362 26.507 82.8708 26.7724C82.6053 27.019 82.2639 27.1422 81.8468 27.1422C80.69 27.1422 79.7703 27.0853 79.0876 26.9716C78.405 26.8388 77.8835 26.6492 77.5232 26.4027C77.1819 26.1561 76.9353 25.8527 76.7836 25.4924C76.6509 25.1132 76.5466 24.677 76.4708 24.184L77.3241 24.2409C77.0207 24.8477 76.6888 25.3407 76.3285 25.72C75.9872 26.0993 75.589 26.3932 75.1339 26.6018C74.6788 26.8104 74.1288 26.9526 73.4841 27.0284C72.8583 27.1043 72.1093 27.1422 71.237 27.1422ZM78.405 32.5182C78.0068 32.5182 77.6654 32.376 77.381 32.0916C77.1155 31.8261 76.9828 31.5037 76.9828 31.1244C76.9828 30.7452 77.1155 30.4133 77.381 30.1289C77.6654 29.8444 78.0068 29.7022 78.405 29.7022C78.7842 29.7022 79.1066 29.8444 79.3721 30.1289C79.6565 30.4133 79.7988 30.7452 79.7988 31.1244C79.7988 31.5037 79.6565 31.8261 79.3721 32.0916C79.1066 32.376 78.7842 32.5182 78.405 32.5182ZM74.5081 32.5182C74.1099 32.5182 73.7685 32.376 73.4841 32.0916C73.2186 31.8261 73.0859 31.5037 73.0859 31.1244C73.0859 30.7452 73.2186 30.4133 73.4841 30.1289C73.7685 29.8444 74.1099 29.7022 74.5081 29.7022C74.8873 29.7022 75.2097 29.8444 75.4752 30.1289C75.7596 30.4133 75.9019 30.7452 75.9019 31.1244C75.9019 31.5037 75.7596 31.8261 75.4752 32.0916C75.2097 32.376 74.8873 32.5182 74.5081 32.5182ZM81.4214 27.1422L81.7059 24.8098C82.8247 24.8098 83.697 24.7719 84.3228 24.696C84.9485 24.6012 85.3942 24.3831 85.6596 24.0418C85.9251 23.6815 86.0579 23.1221 86.0579 22.3636C86.0579 21.8895 85.982 21.3301 85.8303 20.6853C85.6786 20.0216 85.4795 19.32 85.233 18.5804C84.9865 17.8409 84.721 17.1108 84.4365 16.3902L86.7405 15.5369C86.987 16.1437 87.2146 16.8359 87.4232 17.6133C87.6508 18.3908 87.8404 19.1588 87.9921 19.9173C88.1438 20.6759 88.2196 21.3396 88.2196 21.9084C88.2196 22.8566 88.0869 23.6625 87.8214 24.3262C87.5749 24.9899 87.1767 25.5304 86.6268 25.9476C86.0768 26.3647 85.3657 26.6681 84.4934 26.8578C83.6401 27.0474 82.6161 27.1422 81.4214 27.1422ZM87.6223 12.5787C87.2241 12.5787 86.8828 12.4459 86.5983 12.1804C86.3328 11.896 86.2001 11.5641 86.2001 11.1849C86.2001 10.8056 86.3328 10.4738 86.5983 10.1893C86.8828 9.90489 87.2241 9.76267 87.6223 9.76267C88.0016 9.76267 88.3239 9.90489 88.5894 10.1893C88.8739 10.4738 89.0161 10.8056 89.0161 11.1849C89.0161 11.5641 88.8739 11.896 88.5894 12.1804C88.3239 12.4459 88.0016 12.5787 87.6223 12.5787ZM83.7254 12.5787C83.3272 12.5787 82.9859 12.4459 82.7014 12.1804C82.4359 11.896 82.3032 11.5641 82.3032 11.1849C82.3032 10.8056 82.4359 10.4738 82.7014 10.1893C82.9859 9.90489 83.3272 9.76267 83.7254 9.76267C84.1047 9.76267 84.427 9.90489 84.6925 10.1893C84.977 10.4738 85.1192 10.8056 85.1192 11.1849C85.1192 11.5641 84.977 11.896 84.6925 12.1804C84.427 12.4459 84.1047 12.5787 83.7254 12.5787ZM100.018 27L99.4494 6.69066H101.753L102.322 27H100.018ZM103.144 33.5422L102.319 31.3804C104.234 30.7736 105.704 30.0436 106.728 29.1902C107.771 28.3559 108.482 27.4836 108.861 26.5733C109.26 25.6631 109.459 24.7908 109.459 23.9564C109.459 23.4255 109.402 22.9135 109.288 22.4204C109.174 21.9274 108.975 21.368 108.691 20.7422C108.406 20.1164 108.008 19.339 107.496 18.4098L109.573 17.3573C110.293 18.5899 110.805 19.7561 111.109 20.856C111.431 21.9559 111.592 22.923 111.592 23.7573C111.592 24.952 111.393 26.0329 110.995 27C110.615 27.9671 110.103 28.8204 109.459 29.56C108.833 30.3185 108.141 30.9633 107.382 31.4942C106.643 32.0252 105.894 32.4613 105.135 32.8027C104.396 33.144 103.732 33.3905 103.144 33.5422ZM115.58 27L115.096 8.68177H117.4L117.884 27H115.58ZM113.702 6.97511L113.361 5.43911C113.854 5.32533 114.252 5.23052 114.556 5.15466C114.859 5.07881 115.2 4.99348 115.58 4.89866L115.437 5.496C114.944 5.34429 114.47 5.02192 114.015 4.52889C113.579 4.03585 113.361 3.47644 113.361 2.85066C113.361 2.28177 113.494 1.8077 113.759 1.42844C114.044 1.03022 114.404 0.736293 114.84 0.546663C115.295 0.357033 115.779 0.262219 116.291 0.262219C116.499 0.262219 116.717 0.281182 116.945 0.319108C117.191 0.357034 117.419 0.413923 117.628 0.489775L117.4 1.912C117.21 1.87407 117.03 1.83614 116.86 1.79822C116.689 1.76029 116.499 1.74133 116.291 1.74133C115.855 1.74133 115.513 1.83614 115.267 2.02578C115.02 2.19644 114.897 2.44296 114.897 2.76533C114.897 3.16355 115.02 3.50489 115.267 3.78933C115.532 4.07377 115.826 4.30133 116.149 4.472C116.49 4.6237 116.765 4.69955 116.973 4.69955L115.807 4.81333C116.319 4.68059 116.793 4.54785 117.229 4.41511C117.685 4.2634 118.092 4.12118 118.453 3.98844L118.908 5.43911C118.453 5.60978 117.912 5.78992 117.286 5.97955C116.679 6.16918 116.063 6.34933 115.437 6.52C114.812 6.69066 114.233 6.84237 113.702 6.97511Z" fill="white"/>
<path fill-rule="evenodd" clip-rule="evenodd" d="M15.8464 4.96289H8.58307e-06L6.67216 11.635H22.5185L15.8464 4.96289ZM6.67215 11.635V27.4814L0 20.8093V4.96289L6.67215 11.635Z" fill="white"/>
<path fill-rule="evenodd" clip-rule="evenodd" d="M6.67218 27.4814L22.5185 27.4814L15.8464 20.8093L2.28882e-05 20.8093L6.67218 27.4814ZM15.8464 20.8093L15.8464 4.96292L22.5186 11.6351L22.5186 27.4814L15.8464 20.8093Z" fill="white"/>
</svg>
