<svg width="60" height="60" viewBox="0 0 60 60" fill="none" xmlns="http://www.w3.org/2000/svg">
<path d="M59.8392 29.6809C59.8392 37.8751 56.5178 45.2935 51.1479 50.6634C45.778 56.0333 38.3596 59.3547 30.1654 59.3547C21.9712 59.3547 14.5527 56.0333 9.18284 50.6634C3.81293 45.2935 0.491577 37.8751 0.491577 29.6809C0.491577 21.4867 3.81293 14.0682 9.18284 8.69834C14.5527 3.32843 21.9712 0.00708008 30.1654 0.00708008C38.3596 0.00708008 45.778 3.32843 51.1479 8.69834C56.5178 14.0682 59.8392 21.4867 59.8392 29.6809Z" fill="#DDDDDD"/>
<path d="M59.1648 29.6809C59.1648 37.689 55.9197 44.938 50.6711 50.1866C45.4225 55.4352 38.1735 58.6803 30.1654 58.6803C22.1572 58.6803 14.9083 55.4352 9.65971 50.1866C4.41111 44.938 1.16598 37.689 1.16598 29.6809C1.16598 21.6727 4.41111 14.4238 9.65971 9.17521C14.9083 3.92662 22.1572 0.681485 30.1654 0.681485C38.1735 0.681485 45.4225 3.92662 50.6711 9.17521C55.9197 14.4238 59.1648 21.6727 59.1648 29.6809Z" stroke="black" stroke-opacity="0.3" stroke-width="1.34881"/>
</svg>
